<?xml version="1.0" standalone="no"?>
<!DOCTYPE svg PUBLIC "-//W3C//DTD SVG 1.1//EN" "http://www.w3.org/Graphics/SVG/1.1/DTD/svg11.dtd" >
<svg xmlns="http://www.w3.org/2000/svg" xmlns:xlink="http://www.w3.org/1999/xlink" version="1.1">
<metadata>
Created by FontForge 20161003 at Wed Jul 10 19:11:40 2019
 By www-data
Copyright (c) 2014 by Stefan Claudius for Cape Arcona Type Foundry, www.cape-arcona.com All rights reserved.
</metadata>
<defs>
<font id="CAGeheimagent-BoldItalic" horiz-adv-x="418" >
  <font-face 
    font-family="CAGeheimagent-BoldItalic"
    font-weight="700"
    font-style="italic"
    font-stretch="normal"
    units-per-em="1000"
    panose-1="2 0 5 6 2 0 0 2 0 4"
    ascent="800"
    descent="-200"
    x-height="448"
    cap-height="631"
    bbox="-49.001 -172.007 736.727 819.998"
    underline-thickness="50"
    underline-position="-75"
    slope="-13"
    unicode-range="U+000D-2122"
  />
<missing-glyph horiz-adv-x="461" 
 />
    <glyph glyph-name=".notdef" horiz-adv-x="461" 
 />
    <glyph glyph-name="glyph1" horiz-adv-x="0" 
 />
    <glyph glyph-name="glyph1" horiz-adv-x="0" 
 />
    <glyph glyph-name="uni000D" unicode="&#xd;" horiz-adv-x="188" 
 />
    <glyph glyph-name="space" unicode=" " horiz-adv-x="188" 
 />
    <glyph glyph-name="exclam" unicode="!" horiz-adv-x="213" 
d="M182 157h-107l109 474h132zM40 0l22 97h97l-22 -97h-97z" />
    <glyph glyph-name="quotedbl" unicode="&#x22;" horiz-adv-x="267" 
d="M307 502h-63l21 141h86zM210 502h-63l21 141h86z" />
    <glyph glyph-name="numbersign" unicode="#" horiz-adv-x="429" 
d="M91 0l29 129h-68l20 87h68l27 115h-68l20 88h68l27 115h88l-27 -115h72l27 115h88l-27 -115h61l-20 -88h-61l-27 -115h61l-20 -87h-61l-29 -129h-88l29 129h-72l-29 -129h-88zM228 216h72l27 115h-72z" />
    <glyph glyph-name="dollar" unicode="$" horiz-adv-x="384" 
d="M164 0c-24.667 2 -44.165 7.5 -58.498 16.5s-25 20.167 -32 33.5s-10.833 28.166 -11.5 44.499s1 32.833 5 49.5l7 31h102l-7 -31c-3.33301 -13.333 -4 -24.833 -2 -34.5s8 -15.5 18 -17.5l45 196c-8 4.66699 -18.833 10 -32.5 16s-26.334 14.5 -38.001 25.5
s-20.5 25.5 -26.5 43.5s-5.66699 42 1 72l9 37c4 18.667 10.5 36.834 19.5 54.501s20.333 33.167 34 46.5s29.834 24.333 48.501 33s40 13.667 64 15l10 41h58l-10 -41c22.667 -1.33301 41 -6 55 -14s24.333 -18.667 31 -32s10.167 -28.833 10.5 -46.5
s-1.83398 -36.5 -6.50098 -56.5l-5 -21h-102l5 20c2.66699 12.667 3.33398 23.5 2.00098 32.5s-5.66602 15.167 -12.999 18.5l-38 -165c15.333 -8 29.666 -16 42.999 -24s24.166 -17.667 32.499 -29s13.833 -25.5 16.5 -42.5s1 -38.5 -5 -64.5l-14 -62
c-4.66699 -20 -11 -38.667 -19 -56s-18.333 -32.333 -31 -45s-27.834 -23 -45.501 -31s-38.167 -12.333 -61.5 -13l-12 -49h-58zM290.002 206c3.33301 12 4.16797 21.834 2.50098 29.501s-5.5 14.5 -11.5 20.5l-38 -163c8 3.33301 14.667 9.66602 20 18.999
s9.66602 21 12.999 35zM240.004 450.001c-2.66699 -11.333 -2.16797 -21.334 1.49902 -30.001s8.5 -15.667 14.5 -21l31 134c-10.667 -3.33301 -19.167 -9.66602 -25.5 -18.999s-11.166 -21.333 -14.499 -36z" />
    <glyph glyph-name="percent" unicode="%" horiz-adv-x="487" 
d="M280 368c-2 -8.66699 -5.33398 -17.333 -10.001 -26s-10.5 -16.334 -17.5 -23.001s-14.833 -12 -23.5 -16s-18 -6 -28 -6h-56c-19.333 0 -33.166 7.5 -41.499 22.5s-10.5 31.167 -6.5 48.5l45 191c2 8.66699 5.5 17.334 10.5 26.001s11 16.334 18 23.001
s14.833 12.167 23.5 16.5s18 6.5 28 6.5h56c20.667 0 34.667 -7.33301 42 -22s9 -31.334 5 -50.001zM256.999 556.001c2 8 0.334961 11.999 -4.99805 11.999h-33c-2.66699 0 -5 -1.16699 -7 -3.5s-3.33301 -5.16602 -4 -8.49902l-42 -183
c-2 -5.33301 -1.66699 -8.66602 1 -9.99902c1.33301 -0.666992 2.66602 -1 3.99902 -1h33c1.33301 0 2.66602 0.333008 3.99902 1c2.66699 1.33301 5 4.66602 7 9.99902zM173.001 0h-82l375 631h82zM492.001 71c-2 -8.66699 -5.33301 -17.333 -10 -26
s-10.5 -16.334 -17.5 -23.001s-14.833 -12 -23.5 -16s-18 -6 -28 -6h-56c-19.333 0 -33.166 7.5 -41.499 22.5s-10.5 31.167 -6.5 48.5l44 191c2 8.66699 5.5 17.334 10.5 26.001s11.167 16.334 18.5 23.001s15.333 12.167 24 16.5s18 6.5 28 6.5h56
c20.667 0 34.667 -7.33301 42 -22s8.66602 -31.334 3.99902 -50.001zM468.001 259.001c2 8 0.335938 11.998 -4.99707 11.998h-33c-2.66699 0 -4.83398 -1.16699 -6.50098 -3.5s-3.16699 -5.16602 -4.5 -8.49902l-42 -183c-0.666992 -5.33301 0 -8.66602 2 -9.99902
c1.33301 -0.666992 2.66602 -1 3.99902 -1h33c1.33301 0 2.66602 0.666992 3.99902 2c3.33301 1.33301 5.33301 4.33301 6 9z" />
    <glyph glyph-name="ampersand" unicode="&#x26;" horiz-adv-x="494" 
d="M312 410c19.333 14 30.666 28.6641 33.999 43.9971l13 57c4 18 0 27 -12 27h-58c-5.33301 0 -10 -3.16699 -14 -9.5s-6.66699 -12.5 -8 -18.5l-13 -56c-1.33301 -4 -0.166016 -12 3.50098 -24s9.5 -25 17.5 -39l97 -184l106 77l49 -77l-112 -80l74 -127h-129l-38 61
l-10 -8c-12 -8.66699 -23.5 -16.667 -34.5 -24s-22.5 -13.833 -34.5 -19.5s-25 -10 -39 -13s-29.667 -4.5 -47 -4.5c-24 0 -43.833 3.33301 -59.5 10s-27.834 15.5 -36.501 26.5s-14 23.333 -16 37s-1.33301 27.834 2 42.501l23 99
c2.66699 12.667 6.33398 24.834 11.001 36.501s10.834 23 18.501 34s17.5 22 29.5 33s26.667 21.833 44 32.5c-12 22.667 -19.5 41.5 -22.5 56.5s-2.5 31.167 1.5 48.5l15 67c2.66699 12.667 7.16699 25.834 13.5 39.501s15 26.167 26 37.5s24.833 20.666 41.5 27.999
s37 11 61 11h68c14 0 27 -2.83301 39 -8.5s22.167 -13.667 30.5 -24s14 -22.666 17 -36.999s2.5 -30.5 -1.5 -48.5l-14 -61c-6.66699 -28 -18.334 -50.833 -35.001 -68.5s-35.667 -34.167 -57 -49.5zM216 262.997c-8.66699 -7.33301 -17.666 -16.1699 -26.999 -26.5029
s-15 -20.166 -17 -29.499l-19 -84c-2 -9.33301 -0.833008 -16.666 3.5 -21.999s13.833 -8 28.5 -8c6.66699 0 12.167 0.333008 16.5 1s9.16602 2.33398 14.499 5.00098s12 6.66699 20 12s18.667 13 32 23l11 8z" />
    <glyph glyph-name="quotesingle" unicode="'" horiz-adv-x="167" 
d="M209 502h-63l21 141h87z" />
    <glyph glyph-name="parenleft" unicode="(" horiz-adv-x="251" 
d="M198 -76c-31.333 20 -57.332 47.999 -77.999 83.999c-8.66699 15.333 -16.5 33 -23.5 53s-12.167 42.5 -15.5 67.5s-4.33301 53 -3 84s6.33301 65.167 15 102.5c8 34 18.167 65.5 30.5 94.5s25.833 55.667 40.5 80s30.167 46.5 46.5 66.5s32.5 37.667 48.5 53
c36.667 36.667 76 67 118 91l-18 -79c-22.667 -20.667 -44.667 -46 -66 -76c-18 -25.333 -36.333 -57.5 -55 -96.5s-34 -84.5 -46 -136.5s-17.5 -97 -16.5 -135s4.83301 -69.667 11.5 -95c7.33301 -29.333 17.666 -53.666 30.999 -72.999z" />
    <glyph glyph-name="parenright" unicode=")" horiz-adv-x="251" 
d="M33 9c22 19.333 43.6689 43.668 65.002 73.001c17.333 25.333 35.5 57 54.5 95s34.5 83 46.5 135s17.333 97.5 16 136.5s-5 71.167 -11 96.5c-7.33301 30 -17.333 55.333 -30 76l18 79c31.333 -24 57 -54.333 77 -91c8.66699 -15.333 16.5 -33 23.5 -53
s12.167 -42.167 15.5 -66.5s4.5 -51 3.5 -80s-5.5 -60.5 -13.5 -94.5c-8.66699 -37.333 -19.334 -71.333 -32.001 -102s-26.334 -58.334 -41.001 -83.001s-30.167 -46.5 -46.5 -65.5s-32.166 -35.833 -47.499 -50.5c-36.667 -34 -75.334 -60.333 -116.001 -79z" />
    <glyph glyph-name="asterisk" unicode="*" horiz-adv-x="260" 
d="M300 424l-39.999 28l-14 -58h-70l14 58l-50 -27l-21 62l48 24l-37 25l50 63l38 -26l13 57h70l-13 -58l52 28l20 -62l-50 -26c6 -4 12.667 -8.5 20 -13.5s13.666 -9.16699 18.999 -12.5z" />
    <glyph glyph-name="plus" unicode="+" horiz-adv-x="295" 
d="M246 229l-17 -76h-97l17 76h-75l23 97h74l17 75h97l-17 -75h76l-23 -97h-75z" />
    <glyph glyph-name="comma" unicode="," horiz-adv-x="185" 
d="M80 -104h-52l39 104h-27l23 102h102l-22 -94z" />
    <glyph glyph-name="hyphen" unicode="-" horiz-adv-x="299" 
d="M75 224l21 90h247l-21 -90h-247z" />
    <glyph glyph-name="period" unicode="." horiz-adv-x="185" 
d="M40 0l23 102h102l-23 -102h-102z" />
    <glyph glyph-name="slash" unicode="/" horiz-adv-x="378" 
d="M121 0h-102l375 631h102z" />
    <glyph glyph-name="zero" unicode="0" 
d="M379 484c3.33301 12.667 3.16602 24.167 -0.500977 34.5s-12.167 15.5 -25.5 15.5h-48c-13.333 0 -24.166 -5.16699 -32.499 -15.5s-14.166 -21.833 -17.499 -34.5l-78 -337c-2.66699 -12.667 -2.16699 -24.167 1.5 -34.5s12.167 -15.5 25.5 -15.5h48
c13.333 0 24.166 5.16699 32.499 15.5s13.833 21.833 16.5 34.5zM151 474c4.66699 22 12.335 42.5 23.002 61.5s23.5 35.5 38.5 49.5s32.167 25.167 51.5 33.5s40.333 12.5 63 12.5h48c22 0 40.833 -4.16699 56.5 -12.5s27.834 -19.5 36.501 -33.5
s13.834 -30.5 15.501 -49.5s0.166992 -39.5 -4.5 -61.5l-73 -318c-5.33301 -22 -13.333 -42.5 -24 -61.5s-23.5 -35.5 -38.5 -49.5s-32.167 -25 -51.5 -33s-40 -12 -62 -12h-48c-22.667 0 -41.834 4 -57.501 12s-27.834 19 -36.501 33s-13.834 30.5 -15.501 49.5
s0.166016 39.5 5.49902 61.5z" />
    <glyph glyph-name="one" unicode="1" horiz-adv-x="329" 
d="M53 0l22 97h75l96 416l-96 -40l25 108l104 50h95l-123 -534h73l-22 -97h-249z" />
    <glyph glyph-name="two" unicode="2" horiz-adv-x="380" 
d="M464 488c-5.33301 -22.667 -11.833 -43.8359 -19.5 -63.5029s-17 -38.667 -28 -57s-24 -36.666 -39 -54.999s-32.5 -37.5 -52.5 -57.5l-160 -158l206 -1l-22 -96h-327l26 114l220 223c16.667 16.667 30.167 31.334 40.5 44.001s18.666 24.334 24.999 35.001
s11.333 21.167 15 31.5s7.16699 21.5 10.5 33.5c8 35.333 4.33301 53 -11 53h-74c-7.33301 0 -13.666 -3.5 -18.999 -10.5s-9 -14.167 -11 -21.5l-10 -45h-101l14 61c9.33301 32.667 27 59.667 53 81s56.667 32 92 32h77c40 0 68.667 -11.667 86 -35s20.333 -59.333 9 -108z
" />
    <glyph glyph-name="three" unicode="3" horiz-adv-x="395" 
d="M376 129c-8.66699 -38 -25.6641 -68.998 -50.9971 -92.998s-55 -36 -89 -36h-98c-18.667 0 -33.834 3.33301 -45.501 10s-20.5 15.5 -26.5 26.5s-9.33301 23.667 -10 38s0.666016 28.833 3.99902 43.5l11 48h102l-12 -51c-1.33301 -4.66699 -1.5 -8.83398 -0.5 -12.501
s3.83301 -5.5 8.5 -5.5h80c5.33301 0 10.5 3.33301 15.5 10s8.16699 13.667 9.5 21l32 138c3.33301 14.667 -1.33398 22 -14.001 22h-65l24 102h65c7.33301 0 12.833 2.16699 16.5 6.5s6.16699 9.83301 7.5 16.5l21 90c1.33301 8 1 14.667 -1 20s-6 8 -12 8h-79
c-3.33301 0 -6.5 -1.83301 -9.5 -5.5s-4.83301 -6.5 -5.5 -8.5l-13 -55h-103l16 67c2.66699 14 8 27.167 16 39.5s17.833 23.166 29.5 32.499s24.5 16.666 38.5 21.999s29 8 45 8h98c32.667 0 57 -10.333 73 -31s19 -53 9 -97l-21 -90
c-5.33301 -21.333 -11.833 -37.166 -19.5 -47.499s-17.167 -19.166 -28.5 -26.499c8.66699 -3.33301 14.667 -9.33301 18 -18s3.33301 -21.334 0 -38.001z" />
    <glyph glyph-name="four" unicode="4" horiz-adv-x="404" 
d="M353 129l-29 -129h-102l29 128h-199l22 93l248 410h109l-236 -401h80l31 138h102l-31 -137h56l-24 -102h-56z" />
    <glyph glyph-name="five" unicode="5" horiz-adv-x="407" 
d="M390 113c-4 -16.667 -10.999 -31.832 -20.999 -45.499s-21.833 -25.5 -35.5 -35.5s-29 -17.833 -46 -23.5s-34.5 -8.5 -52.5 -8.5h-60c-17.333 0 -33.666 2.33301 -48.999 7s-28.333 12.5 -39 23.5s-17.834 25.5 -21.501 43.5s-2.5 40 3.5 66l12 51h102l-12 -51
c-3.33301 -12 -3.33301 -22.167 0 -30.5s10.333 -12.5 21 -12.5h65c9.33301 0 17.166 3.66699 23.499 11s10.5 15.666 12.5 24.999l34 145c2 9.33301 0.833008 16 -3.5 20s-10.5 6 -18.5 6h-181l75 327h296l-22 -97h-195l-31 -133h85c44 0 73.5 -9.5 88.5 -28.5
s17.5 -50.167 7.5 -93.5l-38 -166v0z" />
    <glyph glyph-name="six" unicode="6" horiz-adv-x="413" 
d="M404 131c-3.33301 -15.333 -9.16699 -30.832 -17.5 -46.499s-18.833 -29.667 -31.5 -42s-27.834 -22.5 -45.501 -30.5s-37.834 -12 -60.501 -12h-80c-21.333 0 -39.666 3.66699 -54.999 11s-27.666 16.833 -36.999 28.5s-15.333 25 -18 40s-2.33398 30.167 0.999023 45.5
l32 135c11.333 51.333 36.333 98.333 75 141l205 230h118l-205 -237h54c16 0 30.833 -2.83301 44.5 -8.5s25.334 -13.334 35.001 -23.001s16.5 -21.167 20.5 -34.5s4 -28 0 -44zM331.999 257.001c2.66699 10.667 2.66797 20 0.000976562 28s-9.33398 12 -20.001 12h-77
c-10.667 0 -19.667 -4 -27 -12s-12.333 -17.333 -15 -28l-29 -123c-2 -9.33301 -1 -17.833 3 -25.5s11.333 -11.5 22 -11.5h77c9.33301 0 17.5 4.33301 24.5 13s11.167 16.667 12.5 24z" />
    <glyph glyph-name="seven" unicode="7" horiz-adv-x="361" 
d="M199 0h-106l264 534h-222l22 97h331l-21 -90z" />
    <glyph glyph-name="eight" unicode="8" horiz-adv-x="440" 
d="M159 0c-34 0 -58.1689 10.333 -72.502 31s-17.833 46.334 -10.5 77.001l37 158c2.66699 11.333 9.5 24.166 20.5 38.499s23.5 25.833 37.5 34.5c-9.33301 9.33301 -16 20.833 -20 34.5s-4.33301 26.834 -1 39.501l21 91c3.33301 14 8.33301 28.333 15 43
s15.667 28.334 27 41.001s25.333 23 42 31s36.334 12 59.001 12h94c22.667 0 40.5 -4 53.5 -12s22.5 -18.333 28.5 -31s9 -26.334 9 -41.001s-1.66699 -29 -5 -43l-21 -91c-3.33301 -12.667 -10 -25.834 -20 -39.501s-21.667 -25.167 -35 -34.5
c9.33301 -8.66699 16.333 -20.167 21 -34.5s5.66699 -27.166 3 -38.499l-37 -158c-7.33301 -30.667 -22.666 -56.334 -45.999 -77.001s-52 -31 -86 -31h-114zM345.998 386c7.33301 0 12.833 2.16699 16.5 6.5s6.16699 9.83301 7.5 16.5l23 99
c1.33301 6.66699 1 12.667 -1 18s-6 8 -12 8h-82c-6 0 -11.167 -2.66699 -15.5 -8s-7.16602 -11.333 -8.49902 -18l-23 -99c-1.33301 -6.66699 -1.33301 -12.167 0 -16.5s5.66602 -6.5 12.999 -6.5h82zM279.998 97c6 0 11.8301 2.66699 17.4971 8
s9.16699 11.666 10.5 18.999l33 142c1.33301 6 0.5 11.333 -2.5 16s-8.16699 7 -15.5 7h-82c-7.33301 0 -13.166 -2.33301 -17.499 -7s-7.16602 -10 -8.49902 -16l-33 -142c-1.33301 -7.33301 -0.666016 -13.666 2.00098 -18.999s7 -8 13 -8h83z" />
    <glyph glyph-name="nine" unicode="9" horiz-adv-x="413" 
d="M147 500c3.33301 15.333 9.16602 30.832 17.499 46.499s19 29.667 32 42s28.333 22.5 46 30.5s37.5 12 59.5 12h81c21.333 0 39.666 -3.66699 54.999 -11s27.333 -16.833 36 -28.5s14.334 -25 17.001 -40s2.33398 -30.167 -0.999023 -45.5l-31 -135
c-12 -50.667 -37.333 -98 -76 -142l-203 -229h-119l205 237h-55c-16 0 -30.833 2.83301 -44.5 8.5s-25.167 13.334 -34.5 23.001s-16 21.167 -20 34.5s-4 28 0 44zM220 373.999c-2.66699 -10.667 -2.66699 -20 0 -28s9.33398 -12 20.001 -12h77c10.667 0 19.667 4 27 12
s12.333 17.333 15 28l28 123c2 9.33301 1.16699 17.833 -2.5 25.5s-10.834 11.5 -21.501 11.5h-77c-9.33301 0 -17.5 -4.33301 -24.5 -13s-11.5 -16.667 -13.5 -24z" />
    <glyph glyph-name="colon" unicode=":" horiz-adv-x="185" 
d="M107 291l23 102h102l-23 -102h-102zM40 0l23 102h102l-23 -102h-102z" />
    <glyph glyph-name="semicolon" unicode=";" horiz-adv-x="185" 
d="M107 291l23 102h102l-23 -102h-102zM80 -104h-52l39 104h-27l23 102h102l-22 -94z" />
    <glyph glyph-name="less" unicode="&#x3c;" horiz-adv-x="314" 
d="M190 90l-113.001 165.001l189 165l111 -8c-1.33301 -3.33301 -8 -11 -20 -23c-10.667 -10.667 -27.5 -26.334 -50.5 -47.001s-55.833 -49.667 -98.5 -87c24.667 -36 44.334 -64.833 59.001 -86.5s25.667 -38.167 33 -49.5c8.66699 -13.333 14.667 -23 18 -29h-128z" />
    <glyph glyph-name="equal" unicode="=" horiz-adv-x="295" 
d="M85 275l22 97h247l-22 -97h-247zM59 163l23 97h247l-23 -97h-247z" />
    <glyph glyph-name="greater" unicode="&#x3e;" horiz-adv-x="314" 
d="M50 98c1.33301 3.33301 7.99902 10.999 19.999 22.999c10.667 10.667 27.167 26.334 49.5 47.001s54.833 49.667 97.5 87c-24.667 36 -44.167 64.667 -58.5 86s-25.166 38 -32.499 50c-8.66699 13.333 -15 23 -19 29h128l113 -165l-189 -165z" />
    <glyph glyph-name="question" unicode="?" horiz-adv-x="327" 
d="M405 425c-6 -26 -16.6631 -47.499 -31.9961 -64.499s-31.333 -31.833 -48 -44.5s-31.834 -24.5 -45.501 -35.5s-22.167 -23.5 -25.5 -37.5l-23 -98h-97l23 99c6 24.667 16.667 45.667 32 63s31.166 32.666 47.499 45.999s31.5 25.5 45.5 36.5s22.333 22.5 25 34.5l20 86
c2 8 2.5 14.833 1.5 20.5s-3.83301 8.5 -8.5 8.5h-73c-4 0 -7.83301 -2.5 -11.5 -7.5s-6.16699 -10.5 -7.5 -16.5l-13 -58h-97l15 65c7.33301 31.333 23.166 57.333 47.499 78s53.5 31 87.5 31h81c33.333 0 56.166 -11.5 68.499 -34.5s14.5 -51.833 6.5 -86.5z
M101.004 0.000976562l22 97h97l-22 -97h-97z" />
    <glyph glyph-name="at" unicode="@" horiz-adv-x="656" 
d="M342 27l-47 0.000976562c-13.333 0 -25.333 2.33301 -36 7s-19.334 12.167 -26.001 22.5s-10.5 23.666 -11.5 39.999s1.16699 36.5 6.5 60.5l36 156c9.33301 38.667 23.833 68.334 43.5 89.001s48.834 31 87.501 31h59c34 0 56.833 -10.333 68.5 -31
s12.834 -50.667 3.50098 -90l-64 -277c-3.33301 -12 -4 -22.333 -2 -31s8.33301 -13 19 -13c12 0 21.667 5.16699 29 15.5s14 28.5 20 54.5l71 310c3.33301 14 3.66602 27.5 0.999023 40.5s-7.66699 24.167 -15 33.5s-16.833 16.833 -28.5 22.5s-24.5 8.5 -38.5 8.5h-169
c-14.667 0 -29 -2.83301 -43 -8.5s-26.833 -13.167 -38.5 -22.5s-21.667 -20.5 -30 -33.5s-14.166 -26.5 -17.499 -40.5l-63 -274c-3.33301 -14 -3.66602 -27.5 -0.999023 -40.5s7.66699 -24.167 15 -33.5s16.666 -16.833 27.999 -22.5s24.333 -8.5 39 -8.5h62l-23 -97h-62
c-28 0 -53 5.33301 -75 16s-40 25 -54 43s-23.5 39.333 -28.5 64s-4.16699 51 2.5 79l63 274c6.66699 28 18 54.333 34 79s35.333 46 58 64s47.5 32.333 74.5 43s54.5 16 82.5 16h169c28 0 53 -5.33301 75 -16s40 -25 54 -43s23.5 -39.333 28.5 -64s4.16699 -51 -2.5 -79
l-71 -309c-12.667 -54.667 -31.834 -95.667 -57.501 -123s-62.167 -41 -109.5 -41c-16.667 0 -31.834 2.16699 -45.501 6.5s-25.167 11.166 -34.5 20.499s-15.666 21.166 -18.999 35.499s-2.66602 31.5 2.00098 51.5l68 295c2.66699 10.667 3.16699 19.334 1.5 26.001
s-6.5 10 -14.5 10h-31c-9.33301 0 -16.833 -3.5 -22.5 -10.5s-9.83398 -16.167 -12.501 -27.5l-34 -149c-3.33301 -11.333 -4 -21 -2 -29s8 -12 18 -12h30z" />
    <glyph glyph-name="A" unicode="A" horiz-adv-x="375" 
d="M260 0l4 125.999h-97c-9.33301 -20 -18.333 -41.167 -27 -63.5s-17 -43.166 -25 -62.499h-105l267 631h110l-22 -631h-105zM290 448.999l-87 -231h66z" />
    <glyph glyph-name="B" unicode="B" horiz-adv-x="408" 
d="M396 147c-3.33301 -15.333 -7.83301 -31.6689 -13.5 -49.002s-14.834 -33.166 -27.501 -47.499s-30 -26.333 -52 -36s-51.333 -14.5 -88 -14.5h-160l145 631h160c43.333 0 74.833 -10.667 94.5 -32s23.834 -55.666 12.501 -102.999l-20 -88
c-4 -17.333 -10.833 -32.833 -20.5 -46.5s-22.167 -24.5 -37.5 -32.5c13.333 -9.33301 22.5 -22 27.5 -38s4.83301 -36 -0.5 -60zM363 487.997c2.66699 13.333 2.16699 24.333 -1.5 33s-11.5 13 -23.5 13h-59l-37 -161h59c12 0 21.833 4.5 29.5 13.5
s13.167 19.167 16.5 30.5zM312 223.997c4.66699 18 3 31.168 -5 39.501s-17.667 12.5 -29 12.5h-59l-41 -179h59c17.333 0 30.333 4.66699 39 14s15 22.666 19 39.999z" />
    <glyph glyph-name="C" unicode="C" horiz-adv-x="383" 
d="M378 110c-3.33301 -14.667 -9.16895 -28.665 -17.502 -41.998s-18.666 -25 -30.999 -35s-26.5 -18 -42.5 -24s-33.333 -9 -52 -9h-72c-38.667 0 -66 11.167 -82 33.5s-19.333 53.833 -10 94.5l84 365c4 18 10.333 35.5 19 52.5s19.5 31.833 32.5 44.5
s28 22.834 45 30.501s35.833 11.5 56.5 11.5h71c36 0 62.167 -11.833 78.5 -35.5s20.5 -52.834 12.5 -87.501l-11 -47h-102l8 34c2.66699 11.333 2.33398 20.666 -0.999023 27.999s-11.333 11 -24 11h-36c-12 0 -22 -3.83301 -30 -11.5s-13.333 -17.5 -16 -29.5l-84 -362
c-2.66699 -11.333 -0.666992 -20 6 -26s13.667 -9 21 -9h35c10.667 0 20 2.66699 28 8s13.667 13.666 17 24.999l10 45h102z" />
    <glyph glyph-name="D" unicode="D" horiz-adv-x="422" 
d="M412 155c-11.333 -52 -34.335 -90.834 -69.002 -116.501s-77 -38.5 -127 -38.5h-161l145 631h160c25.333 0 47 -4.16699 65 -12.5s32.333 -20 43 -35s17.334 -32.667 20.001 -53s1.33398 -42.166 -3.99902 -65.499zM381.998 464.999c4.66699 19.333 3.5 35.667 -3.5 49
s-21.167 20 -42.5 20h-56l-101 -437h58c21.333 0 38 6 50 18s20 26 24 42z" />
    <glyph glyph-name="E" unicode="E" horiz-adv-x="369" 
d="M55 0l145 631h284l-22 -97h-182l-38 -163h115l-22 -97h-115l-41 -177h182l-22 -97h-284z" />
    <glyph glyph-name="F" unicode="F" horiz-adv-x="364" 
d="M55 0l145 631h284l-22 -97h-182l-38 -163h115l-22 -97h-115l-63 -274h-102z" />
    <glyph glyph-name="G" unicode="G" horiz-adv-x="398" 
d="M378 110c-3.33301 -14.667 -9.16895 -28.666 -17.502 -41.999s-18.666 -25 -30.999 -35s-26.5 -18 -42.5 -24s-33.333 -9 -52 -9h-72c-38.667 0 -66 11.167 -82 33.5s-19.333 53.833 -10 94.5l84 365c4 18 10.333 35.5 19 52.5s19.5 31.833 32.5 44.5
s28 22.834 45 30.501s35.833 11.5 56.5 11.5h71c36 0 62.167 -11.833 78.5 -35.5s20.5 -52.834 12.5 -87.501l-11 -47h-102l8 34c2.66699 11.333 2.33398 20.666 -0.999023 27.999s-11.333 11 -24 11h-36c-12 0 -22 -3.83301 -30 -11.5s-13.333 -17.5 -16 -29.5l-84 -362
c-2.66699 -11.333 -0.666992 -20 6 -26s13.667 -9 21 -9h35c10 0 19.167 2.16699 27.5 6.5s13.5 11.5 15.5 21.5l35 149h-54l22 97h156z" />
    <glyph glyph-name="H" unicode="H" horiz-adv-x="417" 
d="M260 0l61 268h-104l-61 -268h-101l145 631h101l-61 -266h104l61 266h102l-145 -631h-102z" />
    <glyph glyph-name="I" unicode="I" horiz-adv-x="212" 
d="M55 0l145 631h102l-145 -631h-102z" />
    <glyph glyph-name="J" unicode="J" horiz-adv-x="331" 
d="M331 196c-6 -24.667 -14.166 -48.8311 -24.499 -72.498s-24 -44.667 -41 -63s-38 -33 -63 -44s-55.167 -16.5 -90.5 -16.5h-90l22 97h89c13.333 0 25.333 2.83301 36 8.5s20 13.167 28 22.5s14.667 20.166 20 32.499s9.66602 25.166 12.999 38.499l78 335h-163l22 97h264
z" />
    <glyph glyph-name="K" unicode="K" horiz-adv-x="412" 
d="M295 0l-37 294l-47 -58l-54 -236h-102l145 631h102l-50 -218c28.667 36 58.5 72.5 89.5 109.5s60.833 73.167 89.5 108.5h113l-198 -237l56 -394h-107z" />
    <glyph glyph-name="L" unicode="L" horiz-adv-x="328" 
d="M55 0l145 631h102l-123 -534h161l-22 -97h-263z" />
    <glyph glyph-name="M" unicode="M" horiz-adv-x="576" 
d="M419 0l68 296l-170 -296h-56l-35 300l-69 -300h-102l145 631h96l39 -427l235 427h96l-145 -631h-102z" />
    <glyph glyph-name="N" unicode="N" horiz-adv-x="407" 
d="M277 0l-52 303l-69 -303h-101l145 631h80l41 -322l74 322h102l-145 -631h-75z" />
    <glyph glyph-name="O" unicode="O" 
d="M382 484c3.33301 12.667 3.16602 24.167 -0.500977 34.5s-12.167 15.5 -25.5 15.5h-48c-13.333 0 -24.166 -5.16699 -32.499 -15.5s-14.166 -21.833 -17.499 -34.5l-78 -337c-2.66699 -12.667 -2.16699 -24.167 1.5 -34.5s12.167 -15.5 25.5 -15.5h48
c13.333 0 24.166 5.16699 32.499 15.5s13.833 21.833 16.5 34.5zM154 474c4.66699 22 12.335 42.5 23.002 61.5s23.5 35.5 38.5 49.5s32.167 25.167 51.5 33.5s40.333 12.5 63 12.5h48c22 0 40.833 -4.16699 56.5 -12.5s27.834 -19.5 36.501 -33.5
s13.834 -30.5 15.501 -49.5s0.166992 -39.5 -4.5 -61.5l-73 -318c-5.33301 -22 -13.333 -42.5 -24 -61.5s-23.5 -35.5 -38.5 -49.5s-32.167 -25 -51.5 -33s-40 -12 -62 -12h-48c-22.667 0 -41.834 4 -57.501 12s-27.834 19 -36.501 33s-13.834 30.5 -15.501 49.5
s0.166016 39.5 5.49902 61.5z" />
    <glyph glyph-name="P" unicode="P" horiz-adv-x="391" 
d="M303 347c14 0 24.833 4.83301 32.5 14.5s13.167 21.5 16.5 35.5l20 87c3.33301 14 3.33301 25.833 0 35.5s-12 14.5 -26 14.5h-66l-43 -187h66zM214 250l-56.998 -250.006h-102l145 631h186c18.667 0 34.667 -3.66699 48 -11s23.833 -17.166 31.5 -29.499
s12.5 -26.666 14.5 -42.999s1 -33.166 -3 -50.499l-26 -113c-4 -17.333 -10.667 -34.166 -20 -50.499s-20.833 -30.666 -34.5 -42.999s-28.834 -22.166 -45.501 -29.499s-34.334 -11 -53.001 -11h-84z" />
    <glyph glyph-name="Q" unicode="Q" 
d="M154 474c4.66699 22 12.335 42.5 23.002 61.5s23.5 35.5 38.5 49.5s32.167 25.167 51.5 33.5s40.333 12.5 63 12.5h48c22 0 40.833 -4.16699 56.5 -12.5s27.834 -19.5 36.501 -33.5s13.834 -30.5 15.501 -49.5s0.166992 -39.5 -4.5 -61.5l-73 -318
c-7.33301 -30 -19.5 -57 -36.5 -81s-38.167 -42.667 -63.5 -56l13 -68h-79l-10 49h-48c-22.667 0 -41.834 4 -57.501 12s-27.834 19 -36.501 33s-13.834 30.5 -15.501 49.5s0.166016 39.5 5.49902 61.5zM382.001 484c3.33301 12.667 3.16504 24.168 -0.501953 34.501
s-12.167 15.5 -25.5 15.5h-48c-13.333 0 -24.166 -5.16699 -32.499 -15.5s-14.166 -21.833 -17.499 -34.5l-78 -337c-2.66699 -12.667 -2.16699 -24.167 1.5 -34.5s12.167 -15.5 25.5 -15.5h6l-13 61h83l7 -42c7.33301 9.33301 12 19.666 14 30.999z" />
    <glyph glyph-name="R" unicode="R" horiz-adv-x="415" 
d="M263 250l-49 -0.00292969l-57 -250h-102l145 631h186c18.667 0 34.667 -3.66699 48 -11s23.833 -17.166 31.5 -29.499s12.5 -26.666 14.5 -42.999s1 -33.166 -3 -50.499l-26 -113c-5.33301 -22.667 -15.333 -44 -30 -64s-32 -36.667 -52 -50l30 -270h-111zM303 346.997
c14 0 24.833 4.83301 32.5 14.5s13.167 21.5 16.5 35.5l20 87c3.33301 14 3.33301 25.833 0 35.5s-12 14.5 -26 14.5h-66l-43 -187h66z" />
    <glyph glyph-name="S" unicode="S" horiz-adv-x="371" 
d="M164 144c-3.33301 -15.333 -3.66211 -28 -0.995117 -38s9 -15 19 -15h45c11.333 0 20.666 5 27.999 15s12.666 23.667 15.999 41l14 59c3.33301 15.333 3.33301 27 0 35s-11.666 15.667 -24.999 23l-75 43h1c-8 4.66699 -16.5 10.334 -25.5 17.001
s-16.667 15.334 -23 26.001s-10.666 23.667 -12.999 39s-0.833008 34 4.5 56l9 37c4.66699 20 11.5 39 20.5 57s20.5 33.833 34.5 47.5s30.333 24.5 49 32.5s39.667 12 63 12h53c23.333 0 42.166 -3.83301 56.499 -11.5s25.166 -18.334 32.499 -32.001
s11.166 -29.5 11.499 -47.5s-1.83398 -37.333 -6.50098 -58l-5 -21h-102l5 20c3.33301 15.333 3.66602 28 0.999023 38s-9 15 -19 15h-45c-11.333 0 -20.666 -5 -27.999 -15s-13 -23.667 -17 -41l-7 -28c-3.33301 -15.333 -1.16602 -27.666 6.50098 -36.999
s15.167 -16 22.5 -20l76 -44h-1c10.667 -6 20.167 -13 28.5 -21s14.833 -17.5 19.5 -28.5s7.16699 -24 7.5 -39s-1.83398 -32.833 -6.50098 -53.5l-14 -62c-4.66699 -20.667 -11.167 -39.834 -19.5 -57.501s-19 -33 -32 -46s-28.5 -23.167 -46.5 -30.5s-39 -11 -63 -11h-55
c-25.333 0 -45.333 4.16699 -60 12.5s-25.334 19.333 -32.001 33s-10 29.167 -10 46.5s2 34.666 6 51.999l7 31h102z" />
    <glyph glyph-name="T" unicode="T" horiz-adv-x="338" 
d="M343 534l-123 -534h-102l123 534h-108l22 97h318l-22 -97h-108z" />
    <glyph glyph-name="U" unicode="U" horiz-adv-x="399" 
d="M162 0c-22.667 0 -40.6689 4.16699 -54.002 12.5s-23.166 19.333 -29.499 33s-9.66602 28.834 -9.99902 45.501s1.5 33.334 5.5 50.001l113 490h102l-113 -491c-6.66699 -28.667 -1 -43 17 -43h54c18 0 30.333 14.333 37 43l113 491h102l-113 -490
c-4 -16.667 -9.83301 -33.334 -17.5 -50.001s-17.667 -31.834 -30 -45.501s-27 -24.667 -44 -33s-36.5 -12.5 -58.5 -12.5h-74z" />
    <glyph glyph-name="V" unicode="V" horiz-adv-x="391" 
d="M231 0h-70l-6 631h105l-6 -378l167 378h105z" />
    <glyph glyph-name="W" unicode="W" horiz-adv-x="574" 
d="M444 0h-76l11 395l-173 -395h-75l24 631h105l-22 -362l154 362h80l-11 -358l143 358h105z" />
    <glyph glyph-name="X" unicode="X" horiz-adv-x="381" 
d="M266 0l-29 207c-18.667 -32 -39 -66.667 -61 -104s-42.333 -71.666 -61 -102.999h-105l196 317c-8 50 -16.667 102.333 -26 157s-18 107 -26 157h106l28 -219l122 219h106l-197 -326c8 -49.333 16.833 -100.333 26.5 -153s18.5 -103.334 26.5 -152.001h-106z" />
    <glyph glyph-name="Y" unicode="Y" horiz-adv-x="365" 
d="M277 200l-46 -200h-102l46 200l-21 431h106l1 -280l134 280h106z" />
    <glyph glyph-name="Z" unicode="Z" horiz-adv-x="334" 
d="M20 0l18 79l286 455h-179l22 97h292l-18 -78l-287 -456h182l-22 -97h-294z" />
    <glyph glyph-name="bracketleft" unicode="[" horiz-adv-x="245" 
d="M2 -79l182 789h192l-22 -97h-95l-137 -595h95l-23 -97h-192z" />
    <glyph glyph-name="backslash" unicode="\" horiz-adv-x="376" 
d="M170 631h102l85 -631h-102z" />
    <glyph glyph-name="bracketright" unicode="]" horiz-adv-x="248" 
d="M386 708l-182 -788h-192l22 96h95l138 595h-95l22 97h192z" />
    <glyph glyph-name="asciicircum" unicode="^" horiz-adv-x="300" 
d="M274 490l-13 31l-28 -31h-96l122 141h55l58 -141h-98z" />
    <glyph glyph-name="underscore" unicode="_" horiz-adv-x="409" 
d="M-21 -128l20 88h386l-20 -88h-386z" />
    <glyph glyph-name="grave" unicode="`" horiz-adv-x="230" 
d="M155 621h108l3 -130h-62z" />
    <glyph glyph-name="a" unicode="a" horiz-adv-x="354" 
d="M221 0l4.99707 20.002c-7.33301 -4.66699 -17.666 -10.334 -30.999 -17.001s-30.666 -10 -51.999 -10c-40 0 -65.833 12 -77.5 36s-12.834 57 -3.50098 99l45 196c9.33301 39.333 27.833 69.666 55.5 90.999s60.834 32 99.501 32l125 1c9.33301 0 15.333 -2.33301 18 -7
s3.33398 -9.66699 2.00098 -15l-98 -426h-88zM292.997 354.002l-54.001 -0.000976562c-9.33301 0 -17.166 -3.16699 -23.499 -9.5s-10.5 -14.166 -12.5 -23.499l-46 -198c-2 -8 -1.5 -15.667 1.5 -23s9.16699 -11 18.5 -11h27c9.33301 0 17 3.66699 23 11s10 15 12 23z" />
    <glyph glyph-name="b" unicode="b" horiz-adv-x="364" 
d="M348 128c-4 -17.333 -10.1709 -34.167 -18.5039 -50.5s-18.666 -30.833 -30.999 -43.5s-26.5 -22.834 -42.5 -30.501s-33.667 -11.5 -53 -11.5c-17.333 0 -30.833 1.83301 -40.5 5.5s-18.167 11.834 -25.5 24.501l-5 -22h-90l143 623h96l-44 -192
c10.667 8.66699 21.334 15 32.001 19s24 6 40 6c34.667 0 59.834 -11.333 75.501 -34s18.834 -55 9.50098 -97zM165.996 122.999c-2 -8.66699 -1.00391 -17.167 2.99609 -25.5s10.667 -12.5 20 -12.5h21c9.33301 0 17.833 3.66699 25.5 11s12.834 16.333 15.501 27l47 206
c2.66699 9.33301 1.83398 17.333 -2.49902 24s-11.166 10 -20.499 10h-23c-9.33301 0 -17.666 -3.66699 -24.999 -11s-12 -15 -14 -23z" />
    <glyph glyph-name="c" unicode="c" horiz-adv-x="341" 
d="M160 121c-2 -10 -1.66797 -18.668 0.999023 -26.001s9 -11 19 -11h27c6.66699 0 12.334 2.5 17.001 7.5s8.66699 10.5 12 16.5c3.33301 7.33301 6.33301 15.333 9 24h96c-4 -18.667 -10.833 -36.5 -20.5 -53.5s-21.334 -31.833 -35.001 -44.5s-29 -22.834 -46 -30.501
s-34.833 -11.5 -53.5 -11.5h-27c-19.333 0 -35.833 3.5 -49.5 10.5s-24.5 16.333 -32.5 28s-13.167 25.334 -15.5 41.001s-1.5 32.167 2.5 49.5l48 206c4 17.333 10.667 33.833 20 49.5s20.666 29.334 33.999 41.001s28.5 21 45.5 28s35.167 10.5 54.5 10.5h27
c18.667 0 34.834 -3.83301 48.501 -11.5s24.334 -18 32.001 -31s12.334 -28 14.001 -45s0.166992 -34.833 -4.5 -53.5h-96c2 8.66699 3 16.667 3 24c0 6 -1.33301 11.667 -4 17s-7.33398 8 -14.001 8h-27c-10 0 -18 -3.66699 -24 -11s-10.333 -16 -13 -26z" />
    <glyph glyph-name="d" unicode="d" horiz-adv-x="364" 
d="M112 325c9.33301 42 27.167 74.334 53.5 97.001s56.833 34 91.5 34c16 0 28.333 -2.33301 37 -7s16.334 -10 23.001 -16l44 190h96l-143 -623h-90l5 22c-12 -10.667 -24.167 -18.334 -36.5 -23.001s-26.833 -7 -43.5 -7c-19.333 0 -35.333 3.5 -48 10.5
s-22.334 16.5 -29.001 28.5s-10.5 25.833 -11.5 41.5s0.5 32.167 4.5 49.5zM293.001 329.001c2 8 1.16699 15.667 -2.5 23s-10.167 11 -19.5 11h-23c-9.33301 0 -17.833 -3.66699 -25.5 -11s-12.5 -15 -14.5 -23l-48 -210c-2.66699 -10 -1.5 -18.167 3.5 -24.5
s12.167 -9.5 21.5 -9.5h20c9.33301 0 17.833 3.33301 25.5 10s12.5 14.667 14.5 24z" />
    <glyph glyph-name="e" unicode="e" horiz-adv-x="348" 
d="M369 265c-8 -34 -23.1641 -59.667 -45.4971 -77s-48.833 -26 -79.5 -26h-74l-9 -38c-2 -9.33301 -1.5 -17 1.5 -23s8.5 -9 16.5 -9h137l-21 -92h-138c-1.33301 0 -8.16602 0.5 -20.499 1.5s-25 5.33301 -38 13s-23.667 20 -32 37s-8.83301 41.167 -1.5 72.5l49 210
c4 18 10.667 34.5 20 49.5s20.666 27.833 33.999 38.5s28.166 19 44.499 25s33.166 9 50.499 9h33c14 0 27.333 -2.5 40 -7.5s23.5 -12.5 32.5 -22.5s15.167 -22.333 18.5 -37s2.66602 -32 -2.00098 -52zM289.003 335c1.33301 6.66699 1.50098 13.167 0.500977 19.5
s-5.5 9.5 -13.5 9.5h-36c-4.66699 0 -9 -1.33301 -13 -4c-8.66699 -4.66699 -14.334 -13.334 -17.001 -26.001l-20 -84h56c10 0 17 2.83301 21 8.5s6.66699 11.834 8 18.501z" />
    <glyph glyph-name="f" unicode="f" horiz-adv-x="266" 
d="M151 356l-47 0.000976562l21 92h47l13 58c9.33301 39.333 26.333 68.666 51 87.999s51.667 29 81 29h74l-21 -92h-62c-8 0 -14.167 -2.83301 -18.5 -8.5s-7.5 -12.5 -9.5 -20.5l-12 -54h69l-21 -92h-69l-91 -396c-8.66699 -36.667 -24.834 -67.167 -48.501 -91.5
s-57.167 -36.5 -100.5 -36.5h-56l21 91h52c8.66699 0 16.334 3.5 23.001 10.5s11.667 16.5 15 28.5z" />
    <glyph glyph-name="g" unicode="g" horiz-adv-x="362" 
d="M219 18c-10.667 -10 -22.499 -16.834 -35.499 -20.501s-25.5 -5.5 -37.5 -5.5c-19.333 0 -35.333 3.5 -48 10.5s-22.334 16.5 -29.001 28.5s-10.5 25.833 -11.5 41.5s0.5 32.167 4.5 49.5l47 203c9.33301 42 27.166 74.5 53.499 97.5s56.833 34.5 91.5 34.5
c16 0 30.167 -2.16699 42.5 -6.5s21.5 -11.166 27.5 -20.499l4 18h86l-113 -488c-8.66699 -36.667 -25 -67.167 -49 -91.5s-57.667 -36.5 -101 -36.5h-119l21 91h115c8.66699 0 16.334 3.5 23.001 10.5s11.667 16.5 15 28.5zM290.001 328.999c2 8 1.16699 15.667 -2.5 23
s-10.167 11 -19.5 11h-23c-9.33301 0 -17.833 -3.66699 -25.5 -11s-12.5 -15 -14.5 -23l-48 -210c-2.66699 -10 -1.5 -18.167 3.5 -24.5s12.167 -9.5 21.5 -9.5h20c9.33301 0 17.833 3.66699 25.5 11s12.5 15 14.5 23z" />
    <glyph glyph-name="h" unicode="h" horiz-adv-x="359" 
d="M313 0l-94.999 0.000976562l75 326c3.33301 16 3.16602 26.667 -0.500977 32s-10.834 8 -21.501 8c-7.33301 0 -14 -1 -20 -3s-11.667 -4.33301 -17 -7c-6 -2.66699 -11.333 -5.66699 -16 -9l-80 -347h-96l143 623h96l-43 -186c8 4 18.333 8.16699 31 12.5
s27.334 6.5 44.001 6.5c23.333 0 41.333 -3.33301 54 -10s21.167 -15.834 25.5 -27.501s5.83301 -25.5 4.5 -41.5s-4.33301 -33 -9 -51z" />
    <glyph glyph-name="i" unicode="i" horiz-adv-x="196" 
d="M48 0l103 448h96l-103 -448h-96zM187 619h102l-23 -101h-102z" />
    <glyph glyph-name="j" unicode="j" horiz-adv-x="201" 
d="M147 -1c-11.333 -51.333 -31.5 -91.999 -60.5 -121.999s-71.833 -45 -128.5 -45l20 90c21.333 0 37.5 6.66699 48.5 20s19.167 31.666 24.5 54.999l104 451h96zM190 619.001h101l-23 -101h-101z" />
    <glyph glyph-name="k" unicode="k" horiz-adv-x="347" 
d="M240 0l-32 193l-34 -36l-36 -157h-96l143 623h96l-71 -309l122 134h112l-157 -171l54 -277h-101z" />
    <glyph glyph-name="l" unicode="l" horiz-adv-x="201" 
d="M184 623l95 -0.000976562l-115 -498c-3.33301 -15.333 -2.33301 -25.166 3 -29.499s11 -6.5 17 -6.5h21l-22 -97h-26c-9.33301 0 -20.5 1.5 -33.5 4.5s-24.667 8.83301 -35 17.5s-18 21 -23 37s-4.5 36.667 1.5 62z" />
    <glyph glyph-name="m" unicode="m" horiz-adv-x="537" 
d="M315 0h-95.998l72 313c8 35.333 3 53 -15 53c-8.66699 0 -16.5 -1.5 -23.5 -4.5s-13.167 -6.16699 -18.5 -9.5c-6 -4 -11.333 -8.66699 -16 -14l-78 -338h-96l103 448h92l-4 -19c9.33301 5.33301 21.333 11.166 36 17.499s30.334 9.5 47.001 9.5
c17.333 0 31.666 -3 42.999 -9s19.666 -14 24.999 -24c9.33301 7.33301 21.833 14.666 37.5 21.999s33.167 11 52.5 11c24 0 42.667 -3.66699 56 -11s22.833 -17.166 28.5 -29.499s8 -26.5 7 -42.5s-3.5 -33 -7.5 -51l-74 -322h-94l74 323
c3.33301 16 2.66602 27.167 -2.00098 33.5s-12.667 9.5 -24 9.5s-20.333 -1.66699 -27 -5s-12 -6.66602 -16 -9.99902h-1z" />
    <glyph glyph-name="n" unicode="n" horiz-adv-x="358" 
d="M313 0h-96.001l75 327c3.33301 16 3.33301 26.5 0 31.5s-10.666 7.5 -21.999 7.5c-6 0 -12.167 -1.16699 -18.5 -3.5s-12.166 -4.83301 -17.499 -7.5c-6 -3.33301 -11.667 -7 -17 -11l-79 -344h-96l103 448h93l-4 -19c8 6 19 12 33 18s30.333 9 49 9
c22.667 0 40 -3.33301 52 -10s20.167 -15.667 24.5 -27s5.66602 -25 3.99902 -41s-4.5 -33 -8.5 -51z" />
    <glyph glyph-name="o" unicode="o" horiz-adv-x="356" 
d="M207 84c7.33301 0 14.5 3.5 21.5 10.5s11.5 14.5 13.5 22.5l49 214c2 8 1.16699 15.5 -2.5 22.5s-9.16699 10.5 -16.5 10.5h-27c-8 0 -15.5 -3.5 -22.5 -10.5s-11.5 -14.5 -13.5 -22.5l-49 -214c-2 -8 -1.16699 -15.5 2.5 -22.5s9.5 -10.5 17.5 -10.5h27zM159 -8
c-19.333 0 -35.833 3.5 -49.5 10.5s-24.5 16.333 -32.5 28s-13.167 25.334 -15.5 41.001s-1.5 32.167 2.5 49.5l48 206c4 17.333 10.667 33.833 20 49.5s20.666 29.334 33.999 41.001s28.5 21 45.5 28s35.167 10.5 54.5 10.5h27c18.667 0 34.834 -3.5 48.501 -10.5
s24.5 -16.333 32.5 -28s13 -25.334 15 -41.001s1 -32.167 -3 -49.5l-48 -206c-4 -17.333 -10.5 -33.833 -19.5 -49.5s-20.167 -29.334 -33.5 -41.001s-28.5 -21 -45.5 -28s-34.833 -10.5 -53.5 -10.5h-27z" />
    <glyph glyph-name="p" unicode="p" horiz-adv-x="364" 
d="M6 -152l139 600.002h91l-4 -19c8 7.33301 18.167 13.666 30.5 18.999s26.833 8 43.5 8c36 0 61.833 -12.333 77.5 -37s18.834 -56.334 9.50098 -95.001l-45 -196c-10 -43.333 -27.333 -76.833 -52 -100.5s-59 -35.5 -103 -35.5c-14.667 0 -25.834 2 -33.501 6
s-14.167 8.33301 -19.5 13l-38 -163h-96zM169 123.002c-2 -8 -1.49805 -15.667 1.50195 -23s9.16699 -11 18.5 -11h26c9.33301 0 17.166 3.66699 23.499 11s10.5 15 12.5 23l46 199c2 8.66699 1.5 17 -1.5 25s-9.16699 12 -18.5 12h-26
c-10.667 0 -18.834 -3.83301 -24.501 -11.5s-9.5 -16.167 -11.5 -25.5z" />
    <glyph glyph-name="q" unicode="q" horiz-adv-x="364" 
d="M182 -152l38.9971 166.002c-7.33301 -4.66699 -16.166 -9.33398 -26.499 -14.001s-26.166 -7 -47.499 -7c-40 0 -65.833 12 -77.5 36s-12.834 57 -3.50098 99l45 196c9.33301 39.333 27.833 69.666 55.5 90.999s60.834 32 99.501 32l125 1
c9.33301 0 15.333 -2.33301 18 -7s3.33398 -9.66699 2.00098 -15l-133 -578h-96zM299.997 355.002l-54.001 -0.000976562c-9.33301 0 -17.166 -3.16699 -23.499 -9.5s-10.5 -14.166 -12.5 -23.499l-49 -199c-2 -8 -1.5 -15.667 1.5 -23s9.16699 -11 18.5 -11h27
c9.33301 0 17 3.66699 23 11s10 15 12 23z" />
    <glyph glyph-name="r" unicode="r" horiz-adv-x="246" 
d="M315 355c-20.667 0 -37.834 -2.16797 -51.501 -6.50098s-24.667 -9.66602 -33 -15.999s-14.5 -13 -18.5 -20s-6.66699 -13.5 -8 -19.5l-67 -293h-96l103 448h91l-8 -33c9.33301 6.66699 18 12.167 26 16.5s16.167 8 24.5 11s17.333 5.16699 27 6.5s20.834 2 33.501 2z
" />
    <glyph glyph-name="s" unicode="s" horiz-adv-x="342" 
d="M328 113c-4 -15.333 -10.335 -30.332 -19.002 -44.999s-19.167 -27.667 -31.5 -39s-26.166 -20.333 -41.499 -27s-31.333 -10 -48 -10h-49c-18.667 0 -33.834 3.83301 -45.501 11.5s-20.5 17.834 -26.5 30.501s-9.33301 27.167 -10 43.5s1 33.166 5 50.499h96
c-1.33301 -4.66699 -2.16602 -9.5 -2.49902 -14.5s-0.166016 -9.66699 0.500977 -14s2 -8 4 -11s5.33301 -4.5 10 -4.5h29c11.333 0 19.5 3.33301 24.5 10s8.16699 13 9.5 19l6 26c2 9.33301 1.83301 16.333 -0.5 21s-9.5 9.66699 -21.5 15l-54 24
c-10 4.66699 -19.5 10.167 -28.5 16.5s-16.333 14 -22 23s-9.5 19.5 -11.5 31.5s-1 26 3 42l6 28c3.33301 15.333 9.16602 30 17.499 44s18.5 26.333 30.5 37s25.5 19.167 40.5 25.5s31.167 9.5 48.5 9.5h48c18.667 0 33.834 -3.66699 45.501 -11s20.5 -17.333 26.5 -30
s9.33301 -27 10 -43s-1 -32.667 -5 -50h-96c2 9.33301 2.5 18.666 1.5 27.999s-5.83301 14 -14.5 14h-29c-7.33301 0 -13.5 -2.33301 -18.5 -7s-8.16699 -10.334 -9.5 -17.001l-6 -24c-2 -9.33301 0.666992 -17.166 8 -23.499s17.666 -12.5 30.999 -18.5l50 -22
c20 -9.33301 34.333 -22 43 -38s9.33398 -40 2.00098 -72z" />
    <glyph glyph-name="t" unicode="t" horiz-adv-x="255" 
d="M245 356l-51.999 -223.001c-3.33301 -15.333 -2.5 -25.166 2.5 -29.499s10.5 -6.5 16.5 -6.5h40l-22 -97h-44c-10 0 -21.333 1.5 -34 4.5s-24.334 8.83301 -35.001 17.5s-18.5 21 -23.5 37s-4.5 36.667 1.5 62l54 235h-50l12 37c20 10.667 37.5 24 52.5 40
s28 33.333 39 52s20.167 37.5 27.5 56.5s13 36.5 17 52.5h53l-34 -146h74l-21 -92h-74z" />
    <glyph glyph-name="u" unicode="u" horiz-adv-x="358" 
d="M140 448l96.001 -0.000976562l-72 -313c-8 -32 -1 -48 21 -48c6 0 11.833 1 17.5 3s11.167 4.33301 16.5 7c6 2.66699 11.667 6.33398 17 11.001l79 340h96l-103 -448h-89l4 18c-9.33301 -5.33301 -21.5 -11 -36.5 -17s-31.167 -9 -48.5 -9
c-22.667 0 -39.834 4 -51.501 12s-19.667 18.833 -24 32.5s-5.5 29 -3.5 46s5 34.5 9 52.5z" />
    <glyph glyph-name="v" unicode="v" horiz-adv-x="335" 
d="M211 0h-93.999l-4 448h102l-11 -271c19.333 44 39.166 89.5 59.499 136.5s39.833 91.833 58.5 134.5h99z" />
    <glyph glyph-name="w" unicode="w" horiz-adv-x="505" 
d="M385 0h-93.999l10 237c-16.667 -38.667 -33.334 -78.5 -50.001 -119.5s-32.667 -80.167 -48 -117.5h-95l8 448h98l-13 -246l102 246h93l-11 -245l100 245h100z" />
    <glyph glyph-name="x" unicode="x" horiz-adv-x="348" 
d="M274 212l54.001 -212.001h-105l-25 130c-12.667 -19.333 -26.834 -41.166 -42.501 -65.499s-29.167 -45.833 -40.5 -64.5h-106l154 225l-52 223h103l26 -140l87 140h106z" />
    <glyph glyph-name="y" unicode="y" horiz-adv-x="335" 
d="M413 448l-113 -488c-8.66699 -36.667 -25 -67.167 -49 -91.5s-57.667 -36.5 -101 -36.5h-119l21 91h115c8.66699 0 16.334 3.5 23.001 10.5s11.667 16.5 15 28.5l13 56c-10.667 -10 -22.5 -16.833 -35.5 -20.5s-25.5 -5.5 -37.5 -5.5c-19.333 0 -35.333 3.5 -48 10.5
s-22.334 16.5 -29.001 28.5s-10.5 25.833 -11.5 41.5s0.5 32.167 4.5 49.5l79 325h94l-78 -328c-2.66699 -10 -1.5 -18.167 3.5 -24.5s12.167 -9.5 21.5 -9.5h20c9.33301 0 17.833 3.66699 25.5 11s12.5 15 14.5 23l78 329h94z" />
    <glyph glyph-name="z" unicode="z" horiz-adv-x="337" 
d="M23 0l16 72l228 285h-158l21 91h280l-16 -71l-231 -285h165l-21 -92h-284z" />
    <glyph glyph-name="braceleft" unicode="{" horiz-adv-x="292" 
d="M168 -77c-16.667 1.33301 -30.668 6.33398 -42.001 15.001c-10 7.33301 -18 18.666 -24 33.999s-5.66699 37.333 1 66l49 213c2.66699 12 -2 18 -14 18h-54l22 97h54c6.66699 0 12 2 16 6s6.66699 8.66699 8 14l48 208c2.66699 13.333 7.5 26.833 14.5 40.5
s15.667 26 26 37s21.833 20 34.5 27s26.667 10.5 42 10.5h71l-21 -93h-47c-5.33301 0 -10.166 -2.33301 -14.499 -7s-7.16602 -9.66699 -8.49902 -15l-53 -227c-4.66699 -21.333 -16.667 -37.666 -36 -48.999c7.33301 -6.66699 12 -14.334 14 -23.001
s1.66699 -17.667 -1 -27l-53 -230c-1.33301 -6 -0.833008 -11.167 1.5 -15.5s6.16602 -6.5 11.499 -6.5h47l-21 -93h-71z" />
    <glyph glyph-name="bar" unicode="|" horiz-adv-x="200" 
d="M40 -43l163 707h97l-163 -707h-97z" />
    <glyph glyph-name="braceright" unicode="}" horiz-adv-x="293" 
d="M253 709c16 -1.33301 30.002 -6.33301 42.002 -15c9.33301 -7.33301 17.166 -18.833 23.499 -34.5s6.16602 -37.5 -0.500977 -65.5l-49 -213c-3.33301 -12 1.33398 -18 14.001 -18h54l-22 -97h-54c-6.66699 0 -12 -2 -16 -6s-6.66699 -8.66699 -8 -14l-48 -208
c-3.33301 -13.333 -8.33301 -26.833 -15 -40.5s-15.167 -26 -25.5 -37s-22 -20 -35 -27s-26.833 -10.5 -41.5 -10.5h-71l21 93h47c5.33301 0 10.166 2.33301 14.499 7s7.16602 9.66699 8.49902 15l53 227c4.66699 21.333 16.667 37.666 36 48.999
c-7.33301 6.66699 -12 14.334 -14 23.001s-1.66699 17.667 1 27l53 230c1.33301 6 0.833008 11.167 -1.5 15.5s-6.16602 6.5 -11.499 6.5h-47l21 93h71z" />
    <glyph glyph-name="asciitilde" unicode="~" horiz-adv-x="350" 
d="M361 302c-7.33301 -7.33301 -15.667 -13.999 -25 -19.999c-8 -5.33301 -17.5 -9.83301 -28.5 -13.5s-23.167 -5.5 -36.5 -5.5c-12 0 -21.667 1.5 -29 4.5s-14.5 6.33301 -21.5 10s-14.5 7 -22.5 10s-18 4.5 -30 4.5c-17.333 0 -32.166 -5 -44.499 -15
s-24.166 -21 -35.499 -33l19 85c5.33301 7.33301 12 14.333 20 21c6.66699 5.33301 15.167 10.333 25.5 15s22.5 7 36.5 7c11.333 0 20.833 -1.5 28.5 -4.5s15 -6.33301 22 -10s14.5 -7 22.5 -10s18.333 -4.5 31 -4.5c10.667 0 21.167 2.5 31.5 7.5s19.666 10.5 27.999 16.5
s15.166 11.667 20.499 17s8.33301 8.66602 9 9.99902z" />
    <glyph glyph-name="exclamdown" unicode="&#xa1;" horiz-adv-x="213" 
d="M153 474h107l-109 -474h-132zM295 631l-22 -97h-97l22 97h97z" />
    <glyph glyph-name="cent" unicode="&#xa2;" horiz-adv-x="346" 
d="M146 -6c-32 5.33301 -55.833 20.001 -71.5 44.001s-19.834 52 -12.501 84l48 209c3.33301 16 9.5 31.167 18.5 45.5s19.833 27.166 32.5 38.499s26.834 21 42.501 29s32.167 13 49.5 15l10 43h59l-9 -41c17.333 -1.33301 32.166 -6 44.499 -14s22 -18.167 29 -30.5
s11.167 -26.666 12.5 -42.999s0 -33.5 -4 -51.5h-89c0 1.33301 0.333008 3 1 5c0.666992 1.33301 1.16699 3.16602 1.5 5.49902s0.833008 4.5 1.5 6.5c1.33301 5.33301 0.833008 10.5 -1.5 15.5s-8.5 7.83301 -18.5 8.5l-63 -275
c4.66699 2.66699 8.83398 6.33398 12.501 11.001s6.5 9.66699 8.5 15c2.66699 6 4.66699 12 6 18h97c-8.66699 -36.667 -26.167 -68.334 -52.5 -95.001s-57.5 -41.667 -93.5 -45l-13 -54h-59zM155 122.001c-1.33301 -5.33301 -0.832031 -12.332 1.50098 -20.999
s6.16602 -13.334 11.499 -14.001l63 274c-6 -2 -11.833 -6 -17.5 -12s-9.16699 -12 -10.5 -18z" />
    <glyph glyph-name="sterling" unicode="&#xa3;" horiz-adv-x="388" 
d="M61 0l50.001 219h-39l18 78h39l6 24h-39l17 77h39l16 68c3.33301 15.333 9 32.5 17 51.5s19.5 37 34.5 54s34.5 31.167 58.5 42.5s53.667 17 89 17h104l-22 -96h-103c-20.667 0 -37.334 -6.66699 -50.001 -20s-22 -32.333 -28 -57l-14 -60h128l-17 -77h-128l-6 -24h128
l-18 -78h-128l-28 -122h192l-22 -97h-294z" />
    <glyph glyph-name="currency" unicode="&#xa4;" horiz-adv-x="461" 
d="M427 110c-3.33301 -14.667 -9.16895 -28.665 -17.502 -41.998s-18.666 -25 -30.999 -35s-26.666 -18 -42.999 -24s-33.833 -9 -52.5 -9h-81c-38.667 0 -66 11.167 -82 33.5s-19.333 53.833 -10 94.5l21 91h-60l33 78h45l6 24h-40l33 77h24l22 95
c4 18 10.333 35.5 19 52.5s19.5 31.833 32.5 44.5s28 22.834 45 30.501s35.833 11.5 56.5 11.5h80c36 0 62.333 -11.833 79 -35.5s21 -52.834 13 -87.501l-11 -47h-102l8 34c2.66699 11.333 2.33398 20.666 -0.999023 27.999s-11.333 11 -24 11h-46
c-12 0 -22 -3.83301 -30 -11.5s-13.333 -17.5 -16 -29.5l-23 -96h142l-32 -77h-127l-6 -24h122l-34 -78h-106l-20 -87c-2.66699 -11.333 -0.666992 -20 6 -26s13.667 -9 21 -9h45c10 0 19.167 2.66699 27.5 8s14.166 13.666 17.499 24.999l10 45h102z" />
    <glyph glyph-name="yen" unicode="&#xa5;" horiz-adv-x="416" 
d="M388 368h35l-17 -77h-62l-13 -24h69l-18 -78h-88l-2 -5l-42 -184h-101l42 183l-1 6h-82l18 78h65v24h-59l17 77h36l-21 263h99l20 -268l149 268h98z" />
    <glyph glyph-name="brokenbar" unicode="&#xa6;" horiz-adv-x="180" 
d="M32 -43l76 329h97l-76 -329h-97zM117 328l76 328h97l-76 -328h-97z" />
    <glyph glyph-name="section" unicode="&#xa7;" horiz-adv-x="352" 
d="M360 254c-4.66699 -19.333 -12.002 -37.832 -22.002 -55.499s-22 -30.834 -36 -39.501c15.333 -20.667 19.333 -47.334 12 -80.001l-20 -85c-3.33301 -13.333 -9.33301 -26 -18 -38s-19 -22.5 -31 -31.5s-25.5 -16.333 -40.5 -22s-29.833 -8.5 -44.5 -8.5h-49
c-16 0 -29.667 3 -41 9s-20.333 13.833 -27 23.5s-11 20.5 -13 32.5s-1.66699 23.667 1 35l11 46h87c-4 -17.333 -5.66699 -30.666 -5 -39.999s5.66699 -14 15 -14h31c5.33301 0 10.833 1.83301 16.5 5.5s9.5 9.5 11.5 17.5l11 48c2.66699 11.333 1 22.833 -5 34.5
s-15 26.167 -27 43.5l-11 12l-61 90c-5.33301 8.66699 -8.5 19.334 -9.5 32.001s0.166992 25.667 3.5 39c4.66699 20 12.834 39.667 24.501 59s25.834 33.666 42.501 42.999c-6.66699 10 -12.167 21.5 -16.5 34.5s-4.5 29.167 -0.5 48.5l19 83
c2.66699 12.667 8.5 25.167 17.5 37.5s19.667 23 32 32s25.833 16.333 40.5 22s29.667 8.5 45 8.5h48c16 0 29.667 -3 41 -9s20.333 -13.833 27 -23.5s11 -20.5 13 -32.5s1.66699 -23.667 -1 -35l-10 -46h-87c4 17.333 5.5 30.666 4.5 39.999s-6.16699 14 -15.5 14h-31
c-5.33301 0 -10.833 -1.83301 -16.5 -5.5s-9.5 -9.5 -11.5 -17.5l-9 -38c-3.33301 -14.667 -2.16602 -27 3.50098 -37s13.167 -22.333 22.5 -37l76 -118v1c5.33301 -7.33301 8.16602 -18.166 8.49902 -32.499s-1.5 -29.5 -5.5 -45.5zM252.998 206.001
c3.33301 3.33301 6.99805 9.66699 10.998 19s6.66699 18 8 26c3.33301 10 4 16 2 18l-61 94c-3.33301 -4.66699 -7.16602 -11.5 -11.499 -20.5s-7.16602 -17.167 -8.49902 -24.5c-2 -10.667 -1 -18 3 -22z" />
    <glyph glyph-name="dieresis" unicode="&#xa8;" horiz-adv-x="305" 
d="M175 608h103l-24 -103h-103zM300 608h103l-24 -103h-103z" />
    <glyph glyph-name="copyright" unicode="&#xa9;" horiz-adv-x="450" 
d="M443 114c-4 -17.333 -11.001 -33.333 -21.001 -48s-21.833 -27.667 -35.5 -39s-28.667 -20.166 -45 -26.499s-33.166 -9.5 -50.499 -9.5h-148c-17.333 0 -32.666 3.16699 -45.999 9.5s-24.333 15.166 -33 26.499s-14.334 24.333 -17.001 39s-2 30.667 2 48l52 225
c4 17.333 10.833 33.5 20.5 48.5s21.334 28 35.001 39s28.667 19.667 45 26s33.166 9.5 50.499 9.5h148c17.333 0 32.833 -3.16699 46.5 -9.5s24.667 -15 33 -26s14 -24 17 -39s2.5 -31.167 -1.5 -48.5zM417.999 339c3.33301 12.667 1.33398 23.5 -5.99902 32.5
s-17.333 13.5 -30 13.5h-148c-12.667 0 -24.334 -4.5 -35.001 -13.5s-17.667 -19.833 -21 -32.5l-52 -225c-3.33301 -12.667 -1.5 -23.334 5.5 -32.001s16.833 -13 29.5 -13h148c12.667 0 24.5 4.33301 35.5 13s18.167 19.334 21.5 32.001zM356 180l-5.99609 -18.001
c-3.33301 -10 -9 -20.667 -17 -32s-18.833 -21.5 -32.5 -30.5s-31.167 -13.5 -52.5 -13.5h-17c-26.667 0 -45.334 8.16699 -56.001 24.5s-13.334 36.833 -8.00098 61.5l25 106c5.33301 24 17.5 44 36.5 60s41.167 24 66.5 24h17c25.333 0 43.666 -9 54.999 -27s14 -40 8 -66
h-68c0.666992 5.33301 1 10 1 14c-0.666992 3.33301 -1.66699 6.5 -3 9.5s-4 4.5 -8 4.5h-17c-11.333 0 -18 -6 -20 -18l-24 -104c-4.66699 -16.667 -1.33398 -25 9.99902 -25h17c5.33301 0 10 3.33301 14 10s7.33301 13.334 10 20.001h69z" />
    <glyph glyph-name="ordfeminine" unicode="&#xaa;" horiz-adv-x="263" 
d="M233 319l4.99902 15.001c-8.66699 -4.66699 -18.667 -8.66699 -30 -12s-22.666 -5 -33.999 -5c-19.333 0 -33.833 6.16699 -43.5 18.5s-11.834 29.833 -6.50098 52.5l7 32c4 18 10 32.167 18 42.5s17.667 18.666 29 24.999s24.833 11.333 40.5 15s33.167 7.5 52.5 11.5
l6 27c0.666992 2 0.833984 5 0.500977 9s-2.5 6 -6.5 6h-23c-2.66699 0 -5.16699 -2 -7.5 -6s-4.16602 -8.33301 -5.49902 -13h-69c6.66699 26.667 19.167 47.5 37.5 62.5s38.5 22.5 60.5 22.5h22c12 0 22.333 -2.33301 31 -7s15.5 -11 20.5 -19s8.16699 -17.167 9.5 -27.5
s0.666016 -20.833 -2.00098 -31.5l-50 -217zM256.999 451.001c-20 -4.66699 -34.001 -9.50098 -42.001 -14.501s-13.333 -12.5 -16 -22.5l-2 -8c-2 -9.33301 -2.16699 -15.666 -0.5 -18.999s5.5 -5 11.5 -5c6.66699 0 13.334 1.66699 20.001 5s12 7 16 11z" />
    <glyph glyph-name="guillemotleft" unicode="&#xab;" horiz-adv-x="432" 
d="M202 86l-116 169l194 169l46 -58l-139 -122l77 -112zM361 86l-116 169l194 169l46 -58l-139 -122l77 -112z" />
    <glyph glyph-name="logicalnot" unicode="&#xac;" horiz-adv-x="309" 
d="M234 212l15 62h-164l22 97h260l-37 -159h-96z" />
    <glyph glyph-name="registered" unicode="&#xae;" horiz-adv-x="251" 
d="M317 492c-3.33301 -13.333 -11.333 -25.166 -24 -35.499s-25.667 -15.5 -39 -15.5h-61c-14.667 0 -25.667 5.16699 -33 15.5s-9.33301 22.166 -6 35.499l29 127c3.33301 14 11.166 26.167 23.499 36.5s25.166 15.5 38.499 15.5h61c14.667 0 25.834 -5.16699 33.501 -15.5
s9.83398 -22.5 6.50098 -36.5zM312 619c1.33301 5.33301 0.833008 9.66602 -1.5 12.999s-5.83301 5 -10.5 5h-61c-5.33301 0 -10 -1.66699 -14 -5s-6.66699 -7.66602 -8 -12.999l-29 -127c-1.33301 -4.66699 -0.833008 -8.66699 1.5 -12s5.83301 -5 10.5 -5h61
c5.33301 0 10 1.66699 14 5s6.66699 7.33301 8 12zM246 489l-4.00098 39.999l-10 -40h-34l32 135h37c0.666992 0 2.83398 -0.166992 6.50098 -0.5s7.5 -1.5 11.5 -3.5s7.33301 -5.33301 10 -10s3 -11.334 1 -20.001l-4 -18c-2.66699 -9.33301 -6.16699 -16 -10.5 -20
s-9.16602 -7.33301 -14.499 -10c2 -7.33301 4.16699 -16.166 6.5 -26.499s4.16602 -19.166 5.49902 -26.499h-33zM263.999 588.999c1.33301 4.66699 1 7.5 -1 8.5s-4.33301 1.5 -7 1.5l-9 -38c2 0 4.33301 0.5 7 1.5s4.66699 3.16699 6 6.5z" />
    <glyph glyph-name="macron" unicode="&#xaf;" horiz-adv-x="332" 
d="M147 503l17 74h245l-17 -74h-245z" />
    <glyph glyph-name="degree" unicode="&#xb0;" horiz-adv-x="289" 
d="M371 551c-3.33301 -14.667 -9.16797 -28.167 -17.501 -40.5s-18.166 -23 -29.499 -32s-23.666 -16.167 -36.999 -21.5s-27 -8 -41 -8c-28.667 0 -50.667 9.66699 -66 29s-19.666 43.333 -12.999 72c3.33301 14 9.16602 27.167 17.499 39.5s18.166 23 29.499 32
s23.666 16.167 36.999 21.5s27 8 41 8s26.667 -2.66699 38 -8s20.5 -12.5 27.5 -21.5s11.833 -19.5 14.5 -31.5s2.33398 -25 -0.999023 -39zM302.998 550c2.66699 9.33301 1.16895 17.333 -4.49805 24s-13.167 10 -22.5 10s-18 -3.33301 -26 -10s-13.333 -14.667 -16 -24
c-2 -9.33301 -0.333008 -17.333 5 -24s12.666 -10 21.999 -10s18.166 3.33301 26.499 10s13.5 14.667 15.5 24z" />
    <glyph glyph-name="plusminus" unicode="&#xb1;" horiz-adv-x="295" 
d="M245 223l-18 -76h-97l18 76h-75l22 97h74l18 75h97l-18 -75h76l-22 -97h-75zM26 19l22 97h247l-22 -97h-247z" />
    <glyph glyph-name="uni00B2" unicode="&#xb2;" horiz-adv-x="210" 
d="M322 552c-4 -18 -9.49805 -33.667 -16.498 -47s-16 -26.666 -27 -39.999s-24.167 -27.833 -39.5 -43.5s-34 -34.834 -56 -57.501h95l-15 -64h-183l15 67l113 115c15.333 15.333 25.666 27.5 30.999 36.5s9.33301 19.167 12 30.5c3.33301 12 2.66602 18 -2.00098 18h-28
c-5.33301 0 -8 -2.66699 -8 -8l-8 -31h-70l9 39c5.33301 18.667 15.5 34 30.5 46s33.167 18 54.5 18h38c22.667 0 39 -6.33301 49 -19s12 -32.667 6 -60z" />
    <glyph glyph-name="uni00B3" unicode="&#xb3;" horiz-adv-x="203" 
d="M273 372c-4.66699 -20.667 -14.499 -37.834 -29.499 -51.501s-32.167 -20.5 -51.5 -20.5h-49c-22 0 -36.333 6.83301 -43 20.5s-8 29.167 -4 46.5l7 31h70l-7 -33v-1h36l16 70h-42l15 67h42l15 65h-36l-8 -35h-71l10 42c3.33301 16.667 12 30.5 26 41.5
s30.667 16.5 50 16.5h49c19.333 0 33.666 -5.66699 42.999 -17s11.333 -29.666 6 -54.999l-12 -52c-3.33301 -11.333 -7.66602 -19.5 -12.999 -24.5s-10.666 -9.5 -15.999 -13.5c3.33301 -3.33301 6.66602 -7.83301 9.99902 -13.5s3.66602 -13.167 0.999023 -22.5z" />
    <glyph glyph-name="acute" unicode="&#xb4;" horiz-adv-x="247" 
d="M203 491h-62l64 130h96z" />
    <glyph glyph-name="mu" unicode="&#xb5;" horiz-adv-x="363" 
d="M232 0l-2.99707 16.001c-7.33301 -5.33301 -17 -9.33301 -29 -12s-22.333 -4 -31 -4c-6 0 -11.5 0.166992 -16.5 0.5s-10.167 1.16602 -15.5 2.49902l-24 -104h-95l127 549h96l-71 -306c-2 -10 -2.33301 -20.167 -1 -30.5s8.66602 -15.5 21.999 -15.5
c11.333 0 21.166 1 29.499 3s15.166 3.66699 20.499 5l79 344h96l-103 -448h-81z" />
    <glyph glyph-name="paragraph" unicode="&#xb6;" horiz-adv-x="441" 
d="M306 0l122 529.001h-21l-122 -529h-75l59 259h-70c-18.667 0 -34.334 3.33301 -47.001 10s-22.667 16 -30 28s-11.666 26 -12.999 42s0 33.333 4 52l27 118c8 35.333 24.5 64.666 49.5 87.999s55.167 35 90.5 35h244l-145 -632h-73zM332 529.001h-56
c-10 0 -18.333 -3.66699 -25 -11s-11.667 -17 -15 -29l-18 -80c-3.33301 -14.667 -3.33301 -26.167 0 -34.5s10 -12.5 20 -12.5h55z" />
    <glyph glyph-name="periodcentered" unicode="&#xb7;" horiz-adv-x="187" 
d="M107 289l24 102h102l-24 -102h-102z" />
    <glyph glyph-name="cedilla" unicode="&#xb8;" horiz-adv-x="163" 
d="M127 -95c-6.66699 -26.667 -19.832 -46.168 -39.499 -58.501s-49.5 -18.5 -89.5 -18.5l1 65c15.333 0 28 1.16699 38 3.5s15.667 6.83301 17 13.5c0.666992 4.66699 -0.833008 8.5 -4.5 11.5s-7.5 6.83301 -11.5 11.5s-7.33301 10.834 -10 18.501
s-2.33398 18.167 0.999023 31.5l9 40h75l-9 -38c-1.33301 -5.33301 -1 -9.5 1 -12.5s4.66699 -6.16699 8 -9.5c5.33301 -5.33301 10 -12 14 -20s4 -20.667 0 -38z" />
    <glyph glyph-name="uni00B9" unicode="&#xb9;" horiz-adv-x="175" 
d="M86 300l15 64h37l43 187l-48 -20l16 71l61 29h59l-61 -267h37l-15 -64h-144z" />
    <glyph glyph-name="ordmasculine" unicode="&#xba;" horiz-adv-x="255" 
d="M221 382c4 0 7.66797 1.83301 11.001 5.5s5.66602 7.5 6.99902 11.5l32 140c1.33301 4.66699 1 8.66699 -1 12s-5 5 -9 5h-17c-4 0 -7.83301 -1.66699 -11.5 -5s-6.16699 -7.33301 -7.5 -12l-32 -140c-1.33301 -4 -0.833008 -7.83301 1.5 -11.5s5.5 -5.5 9.5 -5.5h17z
M188.001 315c-26 0 -44.5 8.66699 -55.5 26s-13.833 37.666 -8.5 60.999l31 134c2.66699 12 7.16699 23.167 13.5 33.5s14 19.5 23 27.5s19.167 14.333 30.5 19s23.666 7 36.999 7h17c26 0 44.333 -8.66699 55 -26s13.334 -37.666 8.00098 -60.999l-31 -134
c-2.66699 -12 -7.16699 -23.167 -13.5 -33.5s-14 -19.5 -23 -27.5s-19.167 -14.333 -30.5 -19s-23.333 -7 -36 -7h-17z" />
    <glyph glyph-name="guillemotright" unicode="&#xbb;" horiz-adv-x="432" 
d="M169 424l116 -169l-194 -169l-46 58l139 122l-77 112zM328 424l116 -169l-194 -169l-46 58l139 122l-77 112z" />
    <glyph glyph-name="onequarter" unicode="&#xbc;" horiz-adv-x="529" 
d="M176 0h-72l376 631h73zM103 300l15 64h38l43 187l-49 -20l16 71l61 29h60l-61 -267h36l-15 -64h-144zM454 64l-14 -64h-71l14 64h-100l13 55l129 212h74l-77 -131h64l-16 -69h28l-16 -67h-28zM399 130l11 51l-29 -51h18z" />
    <glyph glyph-name="onehalf" unicode="&#xbd;" horiz-adv-x="529" 
d="M177 0h-73l377 631h72zM103 301l15 64h38l43 187l-49 -20l17 71l61 29h59l-61 -267h37l-15 -64h-145zM550 251c-4 -18 -9.49707 -33.666 -16.4971 -46.999s-16.167 -26.833 -27.5 -40.5s-24.833 -28.167 -40.5 -43.5s-33.834 -34 -54.501 -56h95l-14 -64h-184l15 67
l113 114c15.333 15.333 25.666 27.666 30.999 36.999s9.33301 19.333 12 30c1.33301 6 1.5 10 0.5 12s-2.5 3 -4.5 3h-29c-2 0 -3.5 -0.833008 -4.5 -2.5s-1.5 -3.16699 -1.5 -4.5l-7 -28h-70l9 39c5.33301 18 15.5 33.167 30.5 45.5s33.167 18.5 54.5 18.5h38
c22.667 0 39.167 -6.5 49.5 -19.5s12.166 -33.167 5.49902 -60.5z" />
    <glyph glyph-name="threequarters" unicode="&#xbe;" horiz-adv-x="504" 
d="M176 0h-72l376 631h73zM291 373c-5.33301 -21.333 -15.499 -38.668 -30.499 -52.001s-32.167 -20 -51.5 -20h-49c-22 0 -36.167 6.83301 -42.5 20.5s-7.83301 29.167 -4.5 46.5l8 31h70l-8 -33v-1h36l16 71h-42l16 67h42l14 64h-36l-8 -35h-71l10 42
c4 16.667 12.833 30.5 26.5 41.5s30.167 16.5 49.5 16.5h49c19.333 0 33.666 -5.66699 42.999 -17s11.333 -29.666 6 -54.999l-10 -44c-3.33301 -11.333 -7.33301 -19.5 -12 -24.5s-9.66699 -9.5 -15 -13.5c10 -8.66699 13.333 -20.667 10 -36zM454.001 63.998l-14 -64h-71
l14 64h-100l13 55l129 212h74l-77 -131h64l-16 -69h28l-16 -67h-28zM399.001 129.998l11 51l-29 -51h18z" />
    <glyph glyph-name="questiondown" unicode="&#xbf;" horiz-adv-x="327" 
d="M65 206c6 26 16.6631 47.499 31.9961 64.499s31.333 31.833 48 44.5s31.834 24.5 45.501 35.5s22.167 23.5 25.5 37.5l23 98h97l-23 -99c-6 -24.667 -16.667 -45.667 -32 -63s-31.166 -32.666 -47.499 -45.999s-31.5 -25.5 -45.5 -36.5s-22.333 -22.5 -25 -34.5l-20 -86
c-2 -8 -2.5 -14.833 -1.5 -20.5s3.83301 -8.5 8.5 -8.5h73c4 0 7.83301 2.5 11.5 7.5s6.16699 10.5 7.5 16.5l13 58h97l-15 -65c-7.33301 -31.333 -23.166 -57.333 -47.499 -78s-53.5 -31 -87.5 -31h-81c-33.333 0 -56.166 11.5 -68.499 34.5s-14.5 51.833 -6.5 86.5z
M368.996 630.999l-22 -97h-97l22 97h97z" />
    <glyph glyph-name="Agrave" unicode="&#xc0;" horiz-adv-x="372" 
d="M256 0l4 125.999h-97c-9.33301 -20 -18.333 -41.167 -27 -63.5s-17 -43.166 -25 -62.499h-105l267 631h110l-22 -631h-105zM286 448.999l-87 -231h66zM260 803.999h108l3 -130h-62z" />
    <glyph glyph-name="Aacute" unicode="&#xc1;" horiz-adv-x="375" 
d="M260 0l4 125.999h-97c-9.33301 -20 -18.333 -41.167 -27 -63.5s-17 -43.166 -25 -62.499h-105l267 631h110l-22 -631h-105zM290 448.999l-87 -231h66zM381 673.999h-62l64 130h96z" />
    <glyph glyph-name="Acircumflex" unicode="&#xc2;" horiz-adv-x="375" 
d="M260 0l4 125.999h-97c-9.33301 -20 -18.333 -41.167 -27 -63.5s-17 -43.166 -25 -62.499h-105l267 631h110l-22 -631h-105zM290 448.999l-87 -231h66zM372 672.999l-18 50l-41 -50h-89l123 141h55l58 -141h-88z" />
    <glyph glyph-name="Atilde" unicode="&#xc3;" horiz-adv-x="375" 
d="M260 0l4 125.999h-97c-9.33301 -20 -18.333 -41.167 -27 -63.5s-17 -43.166 -25 -62.499h-105l267 631h110l-22 -631h-105zM290 448.999l-87 -231h66zM237 757.999c6 5.33301 15.0029 10.999 27.0029 16.999s27 9 45 9c11.333 0 20.666 -1.5 27.999 -4.5
s14.5 -6.33301 21.5 -10s14.667 -7 23 -10s18.833 -4.5 31.5 -4.5c13.333 0 26.666 2.83301 39.999 8.5s25 11.834 35 18.501l-19 -83c-8.66699 -5.33301 -19.334 -10.833 -32.001 -16.5s-28 -8.5 -46 -8.5c-11.333 0 -20.833 1.5 -28.5 4.5s-15 6.5 -22 10.5
s-14.333 7.5 -22 10.5s-17.5 4.5 -29.5 4.5c-12.667 0 -25.5 -3.16699 -38.5 -9.5s-23.833 -12.833 -32.5 -19.5z" />
    <glyph glyph-name="Adieresis" unicode="&#xc4;" horiz-adv-x="375" 
d="M260 0l4 125.999h-97c-9.33301 -20 -18.333 -41.167 -27 -63.5s-17 -43.166 -25 -62.499h-105l267 631h110l-22 -631h-105zM290 448.999l-87 -231h66zM255 790.999h103l-24 -103h-103zM380 790.999h103l-24 -103h-103z" />
    <glyph glyph-name="Aring" unicode="&#xc5;" horiz-adv-x="375" 
d="M260 0l4 125.999h-97c-9.33301 -20 -18.333 -41.167 -27 -63.5s-17 -43.166 -25 -62.499h-105l267 631h110l-22 -631h-105zM290 448.999l-87 -231h66zM439 738.999c-2.66699 -11.333 -7.16602 -21.667 -13.499 -31s-14 -17.5 -23 -24.5s-19 -12.5 -30 -16.5
s-21.833 -6 -32.5 -6c-22.667 0 -40.167 7.5 -52.5 22.5s-15.833 33.5 -10.5 55.5c5.33301 23.333 17.666 42.666 36.999 57.999s40.333 23 63 23c22 0 39.167 -7.66699 51.5 -23s15.833 -34.666 10.5 -57.999zM381.001 740.998c1.33301 6.66699 0.5 12.167 -2.5 16.5
s-7.83301 6.5 -14.5 6.5c-6 0 -12 -2.16699 -18 -6.5s-9.66699 -9.83301 -11 -16.5c-1.33301 -6 -0.166016 -11.167 3.50098 -15.5s8.5 -6.5 14.5 -6.5c6.66699 0 12.667 2.16699 18 6.5s8.66602 9.5 9.99902 15.5z" />
    <glyph glyph-name="AE" unicode="&#xc6;" horiz-adv-x="571" 
d="M539 0h-265.001l61 266h-119l-61 -266h-102l113 491c4 18.667 10.667 36.5 20 53.5s20.833 32 34.5 45s29.334 23.167 47.001 30.5s37.167 11 58.5 11h358l-22 -97h-163l-40 -171h105l-22 -97h-105l-39 -169h163zM304.999 534c-10.667 0 -18.832 -4 -24.499 -12
s-9.83398 -17.667 -12.501 -29l-30 -130h119l40 171h-92z" />
    <glyph glyph-name="Ccedilla" unicode="&#xc7;" horiz-adv-x="382" 
d="M250 -95c-6.66699 -26.667 -19.835 -46.166 -39.502 -58.499s-49.5 -18.5 -89.5 -18.5l1 65c15.333 0 28 1.16699 38 3.5s15.667 6.83301 17 13.5c0.666992 4.66699 -0.833008 8.5 -4.5 11.5s-7.5 6.83301 -11.5 11.5s-7.33301 10.834 -10 18.501
s-2.33398 18.167 0.999023 31.5l4 17c-36 1.33301 -61.5 13 -76.5 35s-17.833 53 -8.5 93l84 365c4 18 10.333 35.5 19 52.5s19.5 31.833 32.5 44.5s28 22.834 45 30.501s35.833 11.5 56.5 11.5h71c36 0 62.167 -11.833 78.5 -35.5s20.5 -52.834 12.5 -87.501l-11 -47h-102
l8 34c2.66699 11.333 2.33398 20.666 -0.999023 27.999s-11.333 11 -24 11h-36c-12 0 -22 -3.83301 -30 -11.5s-13.333 -17.5 -16 -29.5l-84 -362c-2.66699 -11.333 -0.666992 -20 6 -26s13.667 -9 21 -9h35c10.667 0 20 2.66699 28 8s13.667 13.666 17 24.999l10 45h102
l-15 -65c-3.33301 -14.667 -9.16602 -28.667 -17.499 -42s-18.666 -25 -30.999 -35s-26.5 -18 -42.5 -24s-33.333 -9 -52 -9h-5l-3 -15c-1.33301 -5.33301 -1 -9.5 1 -12.5s4.66699 -6.16699 8 -9.5c5.33301 -5.33301 10 -12 14 -20s4 -20.667 0 -38z" />
    <glyph glyph-name="Egrave" unicode="&#xc8;" horiz-adv-x="369" 
d="M55 0l145 631h284l-22 -97h-182l-38 -163h115l-22 -97h-115l-41 -177h182l-22 -97h-284zM285 804h108l3 -130h-62z" />
    <glyph glyph-name="Eacute" unicode="&#xc9;" horiz-adv-x="369" 
d="M55 0l145 631h284l-22 -97h-182l-38 -163h115l-22 -97h-115l-41 -177h182l-22 -97h-284zM372 674h-62l64 130h96z" />
    <glyph glyph-name="Ecircumflex" unicode="&#xca;" horiz-adv-x="369" 
d="M55 0l145 631h284l-22 -97h-182l-38 -163h115l-22 -97h-115l-41 -177h182l-22 -97h-284zM387 673l-18 50l-41 -50h-89l123 141h55l58 -141h-88z" />
    <glyph glyph-name="Edieresis" unicode="&#xcb;" horiz-adv-x="369" 
d="M55 0l145 631h284l-22 -97h-182l-38 -163h115l-22 -97h-115l-41 -177h182l-22 -97h-284zM265 791h103l-24 -103h-103zM390 791h103l-24 -103h-103z" />
    <glyph glyph-name="Igrave" unicode="&#xcc;" horiz-adv-x="267" 
d="M110 0l145 631h102l-145 -631h-102zM240 804h108l3 -130h-62z" />
    <glyph glyph-name="Iacute" unicode="&#xcd;" horiz-adv-x="253" 
d="M55 0l145 631h102l-145 -631h-102zM285 674h-62l64 130h96z" />
    <glyph glyph-name="Icircumflex" unicode="&#xce;" horiz-adv-x="346" 
d="M123 0l145 631h102l-145 -631h-102zM358 673l-18 50l-41 -50h-89l123 141h55l58 -141h-88z" />
    <glyph glyph-name="Idieresis" unicode="&#xcf;" horiz-adv-x="338" 
d="M119 0l145 631h102l-145 -631h-102zM237 791h103l-24 -103h-103zM362 791h103l-24 -103h-103z" />
    <glyph glyph-name="Eth" unicode="&#xd0;" horiz-adv-x="422" 
d="M408 155c-11.333 -52 -34.332 -90.834 -68.999 -116.501s-77 -38.5 -127 -38.5h-161l64 279h-50l21 90h49l61 262h160c25.333 0 47.166 -4.16699 65.499 -12.5s32.666 -20 42.999 -35s16.833 -32.667 19.5 -53s1.33398 -42.166 -3.99902 -65.499zM217.001 278.999
l-42 -181.999h58c21.333 0 38 6 50 18s20 26 24 42l71 308c4.66699 19.333 3.5 35.666 -3.5 48.999s-21.167 20 -42.5 20h-56l-38 -165h56l-21 -90h-56z" />
    <glyph glyph-name="Ntilde" unicode="&#xd1;" horiz-adv-x="407" 
d="M277 0l-52 303l-69 -303h-101l145 631h80l41 -322l74 322h102l-145 -631h-75zM254 758c6 5.33301 15.0029 10.999 27.0029 16.999s27 9 45 9c11.333 0 20.666 -1.5 27.999 -4.5s14.5 -6.33301 21.5 -10s14.667 -7 23 -10s18.833 -4.5 31.5 -4.5
c13.333 0 26.666 2.83301 39.999 8.5s25 11.834 35 18.501l-19 -83c-8.66699 -5.33301 -19.334 -10.833 -32.001 -16.5s-28 -8.5 -46 -8.5c-11.333 0 -20.833 1.5 -28.5 4.5s-15 6.5 -22 10.5s-14.333 7.5 -22 10.5s-17.5 4.5 -29.5 4.5
c-12.667 0 -25.5 -3.16699 -38.5 -9.5s-23.833 -12.833 -32.5 -19.5z" />
    <glyph glyph-name="Ograve" unicode="&#xd2;" 
d="M382 484c3.33301 12.667 3.16602 24.167 -0.500977 34.5s-12.167 15.5 -25.5 15.5h-48c-13.333 0 -24.166 -5.16699 -32.499 -15.5s-14.166 -21.833 -17.499 -34.5l-78 -337c-2.66699 -12.667 -2.16699 -24.167 1.5 -34.5s12.167 -15.5 25.5 -15.5h48
c13.333 0 24.166 5.16699 32.499 15.5s13.833 21.833 16.5 34.5zM154 474c4.66699 22 12.335 42.5 23.002 61.5s23.5 35.5 38.5 49.5s32.167 25.167 51.5 33.5s40.333 12.5 63 12.5h48c22 0 40.833 -4.16699 56.5 -12.5s27.834 -19.5 36.501 -33.5
s13.834 -30.5 15.501 -49.5s0.166992 -39.5 -4.5 -61.5l-73 -318c-5.33301 -22 -13.333 -42.5 -24 -61.5s-23.5 -35.5 -38.5 -49.5s-32.167 -25 -51.5 -33s-40 -12 -62 -12h-48c-22.667 0 -41.834 4 -57.501 12s-27.834 19 -36.501 33s-13.834 30.5 -15.501 49.5
s0.166016 39.5 5.49902 61.5zM288.001 804h108l3 -130h-62z" />
    <glyph glyph-name="Oacute" unicode="&#xd3;" 
d="M382 484c3.33301 12.667 3.16602 24.167 -0.500977 34.5s-12.167 15.5 -25.5 15.5h-48c-13.333 0 -24.166 -5.16699 -32.499 -15.5s-14.166 -21.833 -17.499 -34.5l-78 -337c-2.66699 -12.667 -2.16699 -24.167 1.5 -34.5s12.167 -15.5 25.5 -15.5h48
c13.333 0 24.166 5.16699 32.499 15.5s13.833 21.833 16.5 34.5zM154 474c4.66699 22 12.335 42.5 23.002 61.5s23.5 35.5 38.5 49.5s32.167 25.167 51.5 33.5s40.333 12.5 63 12.5h48c22 0 40.833 -4.16699 56.5 -12.5s27.834 -19.5 36.501 -33.5
s13.834 -30.5 15.501 -49.5s0.166992 -39.5 -4.5 -61.5l-73 -318c-5.33301 -22 -13.333 -42.5 -24 -61.5s-23.5 -35.5 -38.5 -49.5s-32.167 -25 -51.5 -33s-40 -12 -62 -12h-48c-22.667 0 -41.834 4 -57.501 12s-27.834 19 -36.501 33s-13.834 30.5 -15.501 49.5
s0.166016 39.5 5.49902 61.5zM399.001 674h-62l64 130h96z" />
    <glyph glyph-name="Ocircumflex" unicode="&#xd4;" 
d="M382 484c3.33301 12.667 3.16602 24.167 -0.500977 34.5s-12.167 15.5 -25.5 15.5h-48c-13.333 0 -24.166 -5.16699 -32.499 -15.5s-14.166 -21.833 -17.499 -34.5l-78 -337c-2.66699 -12.667 -2.16699 -24.167 1.5 -34.5s12.167 -15.5 25.5 -15.5h48
c13.333 0 24.166 5.16699 32.499 15.5s13.833 21.833 16.5 34.5zM154 474c4.66699 22 12.335 42.5 23.002 61.5s23.5 35.5 38.5 49.5s32.167 25.167 51.5 33.5s40.333 12.5 63 12.5h48c22 0 40.833 -4.16699 56.5 -12.5s27.834 -19.5 36.501 -33.5
s13.834 -30.5 15.501 -49.5s0.166992 -39.5 -4.5 -61.5l-73 -318c-5.33301 -22 -13.333 -42.5 -24 -61.5s-23.5 -35.5 -38.5 -49.5s-32.167 -25 -51.5 -33s-40 -12 -62 -12h-48c-22.667 0 -41.834 4 -57.501 12s-27.834 19 -36.501 33s-13.834 30.5 -15.501 49.5
s0.166016 39.5 5.49902 61.5zM394.001 673l-18 50l-41 -50h-89l123 141h55l58 -141h-88z" />
    <glyph glyph-name="Otilde" unicode="&#xd5;" 
d="M382 484c3.33301 12.667 3.16602 24.167 -0.500977 34.5s-12.167 15.5 -25.5 15.5h-48c-13.333 0 -24.166 -5.16699 -32.499 -15.5s-14.166 -21.833 -17.499 -34.5l-78 -337c-2.66699 -12.667 -2.16699 -24.167 1.5 -34.5s12.167 -15.5 25.5 -15.5h48
c13.333 0 24.166 5.16699 32.499 15.5s13.833 21.833 16.5 34.5zM154 474c4.66699 22 12.335 42.5 23.002 61.5s23.5 35.5 38.5 49.5s32.167 25.167 51.5 33.5s40.333 12.5 63 12.5h48c22 0 40.833 -4.16699 56.5 -12.5s27.834 -19.5 36.501 -33.5
s13.834 -30.5 15.501 -49.5s0.166992 -39.5 -4.5 -61.5l-73 -318c-5.33301 -22 -13.333 -42.5 -24 -61.5s-23.5 -35.5 -38.5 -49.5s-32.167 -25 -51.5 -33s-40 -12 -62 -12h-48c-22.667 0 -41.834 4 -57.501 12s-27.834 19 -36.501 33s-13.834 30.5 -15.501 49.5
s0.166016 39.5 5.49902 61.5zM259.001 758c6 5.33301 15.0029 10.999 27.0029 16.999s27 9 45 9c11.333 0 20.666 -1.5 27.999 -4.5s14.5 -6.33301 21.5 -10s14.667 -7 23 -10s18.833 -4.5 31.5 -4.5c13.333 0 26.666 2.83301 39.999 8.5s25 11.834 35 18.501l-19 -83
c-8.66699 -5.33301 -19.334 -10.833 -32.001 -16.5s-28 -8.5 -46 -8.5c-11.333 0 -20.833 1.5 -28.5 4.5s-15 6.5 -22 10.5s-14.333 7.5 -22 10.5s-17.5 4.5 -29.5 4.5c-12.667 0 -25.5 -3.16699 -38.5 -9.5s-23.833 -12.833 -32.5 -19.5z" />
    <glyph glyph-name="Odieresis" unicode="&#xd6;" 
d="M382 484c3.33301 12.667 3.16602 24.167 -0.500977 34.5s-12.167 15.5 -25.5 15.5h-48c-13.333 0 -24.166 -5.16699 -32.499 -15.5s-14.166 -21.833 -17.499 -34.5l-78 -337c-2.66699 -12.667 -2.16699 -24.167 1.5 -34.5s12.167 -15.5 25.5 -15.5h48
c13.333 0 24.166 5.16699 32.499 15.5s13.833 21.833 16.5 34.5zM154 474c4.66699 22 12.335 42.5 23.002 61.5s23.5 35.5 38.5 49.5s32.167 25.167 51.5 33.5s40.333 12.5 63 12.5h48c22 0 40.833 -4.16699 56.5 -12.5s27.834 -19.5 36.501 -33.5
s13.834 -30.5 15.501 -49.5s0.166992 -39.5 -4.5 -61.5l-73 -318c-5.33301 -22 -13.333 -42.5 -24 -61.5s-23.5 -35.5 -38.5 -49.5s-32.167 -25 -51.5 -33s-40 -12 -62 -12h-48c-22.667 0 -41.834 4 -57.501 12s-27.834 19 -36.501 33s-13.834 30.5 -15.501 49.5
s0.166016 39.5 5.49902 61.5zM277.001 791h103l-24 -103h-103zM402.001 791h103l-24 -103h-103z" />
    <glyph glyph-name="multiply" unicode="&#xd7;" horiz-adv-x="305" 
d="M280 271l50 -63l-84 -67l-48 63l-78 -63l-53 67l77 63l-49 63l84 68l49 -63l77 63l53 -68z" />
    <glyph glyph-name="Oslash" unicode="&#xd8;" 
d="M156 484c4.66699 22 12.334 42.5 23.001 61.5s23.5 35.5 38.5 49.5s32.167 25.167 51.5 33.5s40.333 12.5 63 12.5h48c31.333 0 56.333 -8.33301 75 -25l18 25l55 -33l-41 -55c3.33301 -21.333 2.33301 -44.333 -3 -69l-73 -318c-5.33301 -22 -13.333 -42.5 -24 -61.5
s-23.5 -35.5 -38.5 -49.5s-32.167 -25 -51.5 -33s-40 -12 -62 -12h-48c-32.667 0 -58.334 8.33301 -77.001 25l-35 -47l-55 32l58 80c-2.66699 19.333 -1 41.333 5 66zM356 372l-175.997 -240c1.33301 -7.33301 4.16602 -13.333 8.49902 -18s11.166 -7 20.499 -7h48
c13.333 0 24.166 5.16699 32.499 15.5s13.833 21.833 16.5 34.5zM211.003 282l173.997 239c-1.33301 6.66699 -4.16602 12.167 -8.49902 16.5s-10.5 6.5 -18.5 6.5h-48c-13.333 0 -24.166 -5.16699 -32.499 -15.5s-14.166 -21.833 -17.499 -34.5z" />
    <glyph glyph-name="Ugrave" unicode="&#xd9;" horiz-adv-x="399" 
d="M162 0c-22.667 0 -40.6689 4.16699 -54.002 12.5s-23.166 19.333 -29.499 33s-9.66602 28.834 -9.99902 45.501s1.5 33.334 5.5 50.001l113 490h102l-113 -491c-6.66699 -28.667 -1 -43 17 -43h54c18 0 30.333 14.333 37 43l113 491h102l-113 -490
c-4 -16.667 -9.83301 -33.334 -17.5 -50.001s-17.667 -31.834 -30 -45.501s-27 -24.667 -44 -33s-36.5 -12.5 -58.5 -12.5h-74zM277.998 804h108l3 -130h-62z" />
    <glyph glyph-name="Uacute" unicode="&#xda;" horiz-adv-x="399" 
d="M162 0c-22.667 0 -40.6689 4.16699 -54.002 12.5s-23.166 19.333 -29.499 33s-9.66602 28.834 -9.99902 45.501s1.5 33.334 5.5 50.001l113 490h102l-113 -491c-6.66699 -28.667 -1 -43 17 -43h54c18 0 30.333 14.333 37 43l113 491h102l-113 -490
c-4 -16.667 -9.83301 -33.334 -17.5 -50.001s-17.667 -31.834 -30 -45.501s-27 -24.667 -44 -33s-36.5 -12.5 -58.5 -12.5h-74zM387.998 674h-62l64 130h96z" />
    <glyph glyph-name="Ucircumflex" unicode="&#xdb;" horiz-adv-x="399" 
d="M162 0c-22.667 0 -40.6689 4.16699 -54.002 12.5s-23.166 19.333 -29.499 33s-9.66602 28.834 -9.99902 45.501s1.5 33.334 5.5 50.001l113 490h102l-113 -491c-6.66699 -28.667 -1 -43 17 -43h54c18 0 30.333 14.333 37 43l113 491h102l-113 -490
c-4 -16.667 -9.83301 -33.334 -17.5 -50.001s-17.667 -31.834 -30 -45.501s-27 -24.667 -44 -33s-36.5 -12.5 -58.5 -12.5h-74zM382.998 673l-18 50l-41 -50h-89l123 141h55l58 -141h-88z" />
    <glyph glyph-name="Udieresis" unicode="&#xdc;" horiz-adv-x="399" 
d="M162 0c-22.667 0 -40.6689 4.16699 -54.002 12.5s-23.166 19.333 -29.499 33s-9.66602 28.834 -9.99902 45.501s1.5 33.334 5.5 50.001l113 490h102l-113 -491c-6.66699 -28.667 -1 -43 17 -43h54c18 0 30.333 14.333 37 43l113 491h102l-113 -490
c-4 -16.667 -9.83301 -33.334 -17.5 -50.001s-17.667 -31.834 -30 -45.501s-27 -24.667 -44 -33s-36.5 -12.5 -58.5 -12.5h-74zM266.998 791h103l-24 -103h-103zM391.998 791h103l-24 -103h-103z" />
    <glyph glyph-name="Yacute" unicode="&#xdd;" horiz-adv-x="365" 
d="M277 200l-46 -200h-102l46 200l-21 431h106l1 -280l134 280h106zM362 674h-62l64 130h96z" />
    <glyph glyph-name="Thorn" unicode="&#xde;" horiz-adv-x="335" 
d="M381 305c-9.33301 -41.333 -27 -75.334 -53 -102.001s-56.333 -40 -91 -40h-76l-37 -163h-102l145 630h102l-22 -95h74c17.333 0 32 -4.16699 44 -12.5s21.333 -19.166 28 -32.499s10.667 -28.333 12 -45s0 -33.667 -4 -51zM299 391.999
c3.33301 12.667 3.50195 23.5 0.501953 32.5s-9.5 13.5 -19.5 13.5h-55l-41 -178h59c9.33301 0 17.166 5 23.499 15s11.166 22.333 14.499 37z" />
    <glyph glyph-name="germandbls" unicode="&#xdf;" horiz-adv-x="388" 
d="M342 495c2 9.33301 1.16992 17.6641 -2.49707 24.9971s-9.5 11 -17.5 11h-35c-8.66699 0 -16.167 -3.66699 -22.5 -11s-10.5 -15.666 -12.5 -24.999l-146 -634h-95l146 634c10 43.333 27.667 75.5 53 96.5s56 31.5 92 31.5h53c12.667 0 25 -2.66699 37 -8
s22.167 -13.333 30.5 -24s14.166 -24 17.499 -40s2.66602 -34.667 -2.00098 -56l-23 -99c-4.66699 -19.333 -11.5 -35.166 -20.5 -47.499s-19.167 -21.5 -30.5 -27.5c17.333 -7.33301 29 -18.166 35 -32.499s6 -34.5 0 -60.5l-23 -101
c-9.33301 -40 -26.833 -71.167 -52.5 -93.5s-55.167 -33.5 -88.5 -33.5h-66l21 91h46c13.333 0 23.5 4 30.5 12s11.833 17.333 14.5 28l18 81c4 16 4.66699 29.5 2 40.5s-13.667 16.5 -33 16.5h-37l21 92h22c14.667 0 25.167 3.33301 31.5 10s11.166 16 14.499 28z" />
    <glyph glyph-name="agrave" unicode="&#xe0;" horiz-adv-x="354" 
d="M221 0l4.99707 20.002c-7.33301 -4.66699 -17.666 -10.334 -30.999 -17.001s-30.666 -10 -51.999 -10c-40 0 -65.833 12 -77.5 36s-12.834 57 -3.50098 99l45 196c9.33301 39.333 27.833 69.666 55.5 90.999s60.834 32 99.501 32l125 1c9.33301 0 15.333 -2.33301 18 -7
s3.33398 -9.66699 2.00098 -15l-98 -426h-88zM292.997 354.002l-54.001 -0.000976562c-9.33301 0 -17.166 -3.16699 -23.499 -9.5s-10.5 -14.166 -12.5 -23.499l-46 -198c-2 -8 -1.5 -15.667 1.5 -23s9.16699 -11 18.5 -11h27c9.33301 0 17 3.66699 23 11s10 15 12 23z
M224.996 621.001h108l3 -130h-62z" />
    <glyph glyph-name="aacute" unicode="&#xe1;" horiz-adv-x="354" 
d="M221 0l4.99707 20.002c-7.33301 -4.66699 -17.666 -10.334 -30.999 -17.001s-30.666 -10 -51.999 -10c-40 0 -65.833 12 -77.5 36s-12.834 57 -3.50098 99l45 196c9.33301 39.333 27.833 69.666 55.5 90.999s60.834 32 99.501 32l125 1c9.33301 0 15.333 -2.33301 18 -7
s3.33398 -9.66699 2.00098 -15l-98 -426h-88zM292.997 354.002l-54.001 -0.000976562c-9.33301 0 -17.166 -3.16699 -23.499 -9.5s-10.5 -14.166 -12.5 -23.499l-46 -198c-2 -8 -1.5 -15.667 1.5 -23s9.16699 -11 18.5 -11h27c9.33301 0 17 3.66699 23 11s10 15 12 23z
M311.996 491.001h-62l64 130h96z" />
    <glyph glyph-name="acircumflex" unicode="&#xe2;" horiz-adv-x="354" 
d="M221 0l4.99707 20.002c-7.33301 -4.66699 -17.666 -10.334 -30.999 -17.001s-30.666 -10 -51.999 -10c-40 0 -65.833 12 -77.5 36s-12.834 57 -3.50098 99l45 196c9.33301 39.333 27.833 69.666 55.5 90.999s60.834 32 99.501 32l125 1c9.33301 0 15.333 -2.33301 18 -7
s3.33398 -9.66699 2.00098 -15l-98 -426h-88zM292.997 354.002l-54.001 -0.000976562c-9.33301 0 -17.166 -3.16699 -23.499 -9.5s-10.5 -14.166 -12.5 -23.499l-46 -198c-2 -8 -1.5 -15.667 1.5 -23s9.16699 -11 18.5 -11h27c9.33301 0 17 3.66699 23 11s10 15 12 23z
M320.996 490.001l-18 50l-41 -50h-89l123 141h55l58 -141h-88z" />
    <glyph glyph-name="atilde" unicode="&#xe3;" horiz-adv-x="354" 
d="M221 0l4.99707 20.002c-7.33301 -4.66699 -17.666 -10.334 -30.999 -17.001s-30.666 -10 -51.999 -10c-40 0 -65.833 12 -77.5 36s-12.834 57 -3.50098 99l45 196c9.33301 39.333 27.833 69.666 55.5 90.999s60.834 32 99.501 32l125 1c9.33301 0 15.333 -2.33301 18 -7
s3.33398 -9.66699 2.00098 -15l-98 -426h-88zM292.997 354.002l-54.001 -0.000976562c-9.33301 0 -17.166 -3.16699 -23.499 -9.5s-10.5 -14.166 -12.5 -23.499l-46 -198c-2 -8 -1.5 -15.667 1.5 -23s9.16699 -11 18.5 -11h27c9.33301 0 17 3.66699 23 11s10 15 12 23z
M181.996 575.001c6 5.33301 15.0029 10.999 27.0029 16.999s27 9 45 9c11.333 0 20.666 -1.5 27.999 -4.5s14.5 -6.33301 21.5 -10s14.667 -7 23 -10s18.833 -4.5 31.5 -4.5c13.333 0 26.666 2.83301 39.999 8.5s25 11.834 35 18.501l-19 -83
c-8.66699 -5.33301 -19.334 -10.833 -32.001 -16.5s-28 -8.5 -46 -8.5c-11.333 0 -20.833 1.5 -28.5 4.5s-15 6.5 -22 10.5s-14.333 7.5 -22 10.5s-17.5 4.5 -29.5 4.5c-12.667 0 -25.5 -3.16699 -38.5 -9.5s-23.833 -12.833 -32.5 -19.5z" />
    <glyph glyph-name="adieresis" unicode="&#xe4;" horiz-adv-x="354" 
d="M221 0l4.99707 20.002c-7.33301 -4.66699 -17.666 -10.334 -30.999 -17.001s-30.666 -10 -51.999 -10c-40 0 -65.833 12 -77.5 36s-12.834 57 -3.50098 99l45 196c9.33301 39.333 27.833 69.666 55.5 90.999s60.834 32 99.501 32l125 1c9.33301 0 15.333 -2.33301 18 -7
s3.33398 -9.66699 2.00098 -15l-98 -426h-88zM292.997 354.002l-54.001 -0.000976562c-9.33301 0 -17.166 -3.16699 -23.499 -9.5s-10.5 -14.166 -12.5 -23.499l-46 -198c-2 -8 -1.5 -15.667 1.5 -23s9.16699 -11 18.5 -11h27c9.33301 0 17 3.66699 23 11s10 15 12 23z
M202.996 608.001h103l-24 -103h-103zM327.996 608.001h103l-24 -103h-103z" />
    <glyph glyph-name="aring" unicode="&#xe5;" horiz-adv-x="354" 
d="M221 0l4.99707 20.002c-7.33301 -4.66699 -17.666 -10.334 -30.999 -17.001s-30.666 -10 -51.999 -10c-40 0 -65.833 12 -77.5 36s-12.834 57 -3.50098 99l45 196c9.33301 39.333 27.833 69.666 55.5 90.999s60.834 32 99.501 32l125 1c9.33301 0 15.333 -2.33301 18 -7
s3.33398 -9.66699 2.00098 -15l-98 -426h-88zM292.997 354.002l-54.001 -0.000976562c-9.33301 0 -17.166 -3.16699 -23.499 -9.5s-10.5 -14.166 -12.5 -23.499l-46 -198c-2 -8 -1.5 -15.667 1.5 -23s9.16699 -11 18.5 -11h27c9.33301 0 17 3.66699 23 11s10 15 12 23z
M386.996 556.001c-2.66699 -11.333 -7.16602 -21.667 -13.499 -31s-14 -17.5 -23 -24.5s-19 -12.5 -30 -16.5s-21.833 -6 -32.5 -6c-22.667 0 -40.167 7.5 -52.5 22.5s-15.833 33.5 -10.5 55.5c5.33301 23.333 17.666 42.666 36.999 57.999s40.333 23 63 23
c22 0 39.167 -7.66699 51.5 -23s15.833 -34.666 10.5 -57.999zM328.997 558c1.33301 6.66699 0.5 12.167 -2.5 16.5s-7.83301 6.5 -14.5 6.5c-6 0 -12 -2.16699 -18 -6.5s-9.66699 -9.83301 -11 -16.5c-1.33301 -6 -0.166016 -11.167 3.50098 -15.5s8.5 -6.5 14.5 -6.5
c6.66699 0 12.667 2.16699 18 6.5s8.66602 9.5 9.99902 15.5z" />
    <glyph glyph-name="ae" unicode="&#xe6;" horiz-adv-x="516" 
d="M550 280c-8 -34 -22.999 -59.333 -44.999 -76s-48.333 -25 -79 -25h-74l-14 -60c-2 -8 -1.16699 -14.5 2.5 -19.5s9.16699 -7.5 16.5 -7.5h137l-21 -92h-146c-4 -0 -9.16699 0.333008 -15.5 1s-12.833 2.16699 -19.5 4.5s-13.167 5.66602 -19.5 9.99902
s-11.5 10.5 -15.5 18.5c-14 -11.333 -29.833 -20.333 -47.5 -27s-39.5 -10 -65.5 -10c-13.333 0 -26.166 2.33301 -38.499 7s-22.833 11.334 -31.5 20.001s-14.834 19.334 -18.501 32.001s-3.5 27 0.5 43l12 50c10.667 44.667 31.834 76.167 63.501 94.5
s67.167 27.5 106.5 27.5h39l15 64c0.666992 2 1.16699 4.66699 1.5 8s0 6.5 -1 9.5s-2.5 5.66699 -4.5 8s-5.33301 3.5 -10 3.5h-35c-6 0 -11.167 -3.33301 -15.5 -10s-7.16602 -13.334 -8.49902 -20.001h-96c8.66699 38.667 26.5 68.667 53.5 90s56.833 32 89.5 32h33
c13.333 0 25.166 -2.16699 35.499 -6.5s19.166 -9.83301 26.499 -16.5c23.333 15.333 50 23 80 23h33c14 0 27.333 -2.5 40 -7.5s23.5 -12.5 32.5 -22.5s15.167 -22.333 18.5 -37s2.66602 -32 -2.00098 -52zM468.001 335c1.33301 6.66699 1.33496 13.168 0.00195312 19.501
s-6 9.5 -14 9.5h-36c-4.66699 0 -9 -1.33301 -13 -4c-8.66699 -4.66699 -14.334 -13.334 -17.001 -26.001l-15 -63h56c10 0 17.167 2.33301 21.5 7s7.16602 10.667 8.49902 18zM256.003 180.001l-41.999 0.000976562c-16 0 -27.833 -3.5 -35.5 -10.5
s-13.167 -16.5 -16.5 -28.5l-3 -14c-4 -16.667 -4.5 -27.834 -1.5 -33.501s9.83301 -8.5 20.5 -8.5c11.333 0 23.166 3.33301 35.499 10s21.5 13.667 27.5 21z" />
    <glyph glyph-name="ccedilla" unicode="&#xe7;" horiz-adv-x="341" 
d="M230 -95c-6.66699 -26.667 -19.834 -46.1738 -39.501 -58.5068s-49.5 -18.5 -89.5 -18.5l1 65c15.333 0 28 1.16699 38 3.5s15.667 6.83301 17 13.5c0.666992 4.66699 -0.833008 8.5 -4.5 11.5s-7.5 6.83301 -11.5 11.5s-7.33301 10.834 -10 18.501
s-2.33398 18.167 0.999023 31.5l2 11c-14.667 2.66699 -27.167 8 -37.5 16s-18.5 17.667 -24.5 29s-9.66699 24 -11 38s-0.333008 28.667 3 44l48 206c4 17.333 10.667 33.833 20 49.5s20.666 29.334 33.999 41.001s28.5 21 45.5 28s35.167 10.5 54.5 10.5h27
c18.667 0 34.834 -3.83301 48.501 -11.5s24.334 -18 32.001 -31s12.334 -28 14.001 -45s0.166992 -34.833 -4.5 -53.5h-96c2 8.66699 3 16.667 3 24c0 6 -1.33301 11.667 -4 17s-7.33398 8 -14.001 8h-27c-10 0 -18 -3.66699 -24 -11s-10.333 -16 -13 -26l-48 -206
c-2 -10 -1.66699 -18.667 1 -26s9 -11 19 -11h27c6.66699 0 12.334 2.5 17.001 7.5s8.66699 10.5 12 16.5c3.33301 7.33301 6.33301 15.333 9 24h96c-4 -17.333 -10 -33.666 -18 -48.999s-17.833 -29.166 -29.5 -41.499s-24.667 -22.666 -39 -30.999
s-29.5 -13.833 -45.5 -16.5l-2 -9c-1.33301 -7.33301 1.33398 -14.333 8.00098 -21c5.33301 -5.33301 10.166 -12.166 14.499 -20.499s4.5 -21.166 0.5 -38.499z" />
    <glyph glyph-name="egrave" unicode="&#xe8;" horiz-adv-x="348" 
d="M369 265c-8 -34 -23.1641 -59.667 -45.4971 -77s-48.833 -26 -79.5 -26h-74l-9 -38c-2 -9.33301 -1.5 -17 1.5 -23s8.5 -9 16.5 -9h137l-21 -92h-138c-1.33301 0 -8.16602 0.5 -20.499 1.5s-25 5.33301 -38 13s-23.667 20 -32 37s-8.83301 41.167 -1.5 72.5l49 210
c4 18 10.667 34.5 20 49.5s20.666 27.833 33.999 38.5s28.166 19 44.499 25s33.166 9 50.499 9h33c14 0 27.333 -2.5 40 -7.5s23.5 -12.5 32.5 -22.5s15.167 -22.333 18.5 -37s2.66602 -32 -2.00098 -52zM289.003 335c1.33301 6.66699 1.50098 13.167 0.500977 19.5
s-5.5 9.5 -13.5 9.5h-36c-4.66699 0 -9 -1.33301 -13 -4c-8.66699 -4.66699 -14.334 -13.334 -17.001 -26.001l-20 -84h56c10 0 17 2.83301 21 8.5s6.66699 11.834 8 18.501zM212.004 621h108l3 -130h-62z" />
    <glyph glyph-name="eacute" unicode="&#xe9;" horiz-adv-x="348" 
d="M369 265c-8 -34 -23.1641 -59.667 -45.4971 -77s-48.833 -26 -79.5 -26h-74l-9 -38c-2 -9.33301 -1.5 -17 1.5 -23s8.5 -9 16.5 -9h137l-21 -92h-138c-1.33301 0 -8.16602 0.5 -20.499 1.5s-25 5.33301 -38 13s-23.667 20 -32 37s-8.83301 41.167 -1.5 72.5l49 210
c4 18 10.667 34.5 20 49.5s20.666 27.833 33.999 38.5s28.166 19 44.499 25s33.166 9 50.499 9h33c14 0 27.333 -2.5 40 -7.5s23.5 -12.5 32.5 -22.5s15.167 -22.333 18.5 -37s2.66602 -32 -2.00098 -52zM289.003 335c1.33301 6.66699 1.50098 13.167 0.500977 19.5
s-5.5 9.5 -13.5 9.5h-36c-4.66699 0 -9 -1.33301 -13 -4c-8.66699 -4.66699 -14.334 -13.334 -17.001 -26.001l-20 -84h56c10 0 17 2.83301 21 8.5s6.66699 11.834 8 18.501zM309.004 491h-62l64 130h96z" />
    <glyph glyph-name="ecircumflex" unicode="&#xea;" horiz-adv-x="348" 
d="M369 265c-8 -34 -23.1641 -59.667 -45.4971 -77s-48.833 -26 -79.5 -26h-74l-9 -38c-2 -9.33301 -1.5 -17 1.5 -23s8.5 -9 16.5 -9h137l-21 -92h-138c-1.33301 0 -8.16602 0.5 -20.499 1.5s-25 5.33301 -38 13s-23.667 20 -32 37s-8.83301 41.167 -1.5 72.5l49 210
c4 18 10.667 34.5 20 49.5s20.666 27.833 33.999 38.5s28.166 19 44.499 25s33.166 9 50.499 9h33c14 0 27.333 -2.5 40 -7.5s23.5 -12.5 32.5 -22.5s15.167 -22.333 18.5 -37s2.66602 -32 -2.00098 -52zM289.003 335c1.33301 6.66699 1.50098 13.167 0.500977 19.5
s-5.5 9.5 -13.5 9.5h-36c-4.66699 0 -9 -1.33301 -13 -4c-8.66699 -4.66699 -14.334 -13.334 -17.001 -26.001l-20 -84h56c10 0 17 2.83301 21 8.5s6.66699 11.834 8 18.501zM317.004 490l-18 50l-41 -50h-89l123 141h55l58 -141h-88z" />
    <glyph glyph-name="edieresis" unicode="&#xeb;" horiz-adv-x="348" 
d="M369 265c-8 -34 -23.1641 -59.667 -45.4971 -77s-48.833 -26 -79.5 -26h-74l-9 -38c-2 -9.33301 -1.5 -17 1.5 -23s8.5 -9 16.5 -9h137l-21 -92h-138c-1.33301 0 -8.16602 0.5 -20.499 1.5s-25 5.33301 -38 13s-23.667 20 -32 37s-8.83301 41.167 -1.5 72.5l49 210
c4 18 10.667 34.5 20 49.5s20.666 27.833 33.999 38.5s28.166 19 44.499 25s33.166 9 50.499 9h33c14 0 27.333 -2.5 40 -7.5s23.5 -12.5 32.5 -22.5s15.167 -22.333 18.5 -37s2.66602 -32 -2.00098 -52zM289.003 335c1.33301 6.66699 1.50098 13.167 0.500977 19.5
s-5.5 9.5 -13.5 9.5h-36c-4.66699 0 -9 -1.33301 -13 -4c-8.66699 -4.66699 -14.334 -13.334 -17.001 -26.001l-20 -84h56c10 0 17 2.83301 21 8.5s6.66699 11.834 8 18.501zM200.004 608h103l-24 -103h-103zM325.004 608h103l-24 -103h-103z" />
    <glyph glyph-name="igrave" unicode="&#xec;" horiz-adv-x="196" 
d="M48 0l103 448h96l-103 -448h-96zM141 621h108l3 -130h-62z" />
    <glyph glyph-name="iacute" unicode="&#xed;" horiz-adv-x="196" 
d="M48 0l103 448h96l-103 -448h-96zM227 491h-62l64 130h96z" />
    <glyph glyph-name="icircumflex" unicode="&#xee;" horiz-adv-x="196" 
d="M48 0l103 448h96l-103 -448h-96zM239 490l-18 50l-41 -50h-89l123 141h55l58 -141h-88z" />
    <glyph glyph-name="idieresis" unicode="&#xef;" horiz-adv-x="196" 
d="M48 0l103 448h96l-103 -448h-96zM122 608h103l-24 -103h-103zM247 608h103l-24 -103h-103z" />
    <glyph glyph-name="eth" unicode="&#xf0;" horiz-adv-x="340" 
d="M381 413c-2 -42 -7.99707 -83.334 -17.9971 -124.001l-37 -163c-4 -16 -9.16699 -32 -15.5 -48s-15.333 -30.333 -27 -43s-26.334 -23 -44.001 -31s-39.5 -12 -65.5 -12h-27c-24 0 -43.167 3.83301 -57.5 11.5s-25 17.667 -32 30s-10.833 26.333 -11.5 42
s1 31.167 5 46.5l36 157c4 16.667 10.667 32.834 20 48.501s20.5 29.334 33.5 41.001s27.833 21 44.5 28s34.667 10.5 54 10.5h27c3.33301 0 6.66602 -0.166992 9.99902 -0.5s6.66602 -0.833008 9.99902 -1.5v8h-108l18 80h73c-8.66699 10 -21 18.667 -37 26
s-30.667 13.666 -44 18.999l52 79c40 -15.333 70.5 -33 91.5 -53s34.5 -43.667 40.5 -71h69l-18 -80h-42zM265.003 278.999c2.66699 10.667 2.16992 19.333 -1.49707 26s-9.83398 10 -18.501 10h-27c-9.33301 0 -16.833 -3.5 -22.5 -10.5s-9.83398 -15.5 -12.501 -25.5
l-37 -162c-2 -8 -1.66699 -15.5 1 -22.5s8.66699 -10.5 18 -10.5h27c9.33301 0 17.166 3.5 23.499 10.5s10.5 14.5 12.5 22.5z" />
    <glyph glyph-name="ntilde" unicode="&#xf1;" horiz-adv-x="358" 
d="M313 0h-96.001l75 327c3.33301 16 3.33301 26.5 0 31.5s-10.666 7.5 -21.999 7.5c-6 0 -12.167 -1.16699 -18.5 -3.5s-12.166 -4.83301 -17.499 -7.5c-6 -3.33301 -11.667 -7 -17 -11l-79 -344h-96l103 448h93l-4 -19c8 6 19 12 33 18s30.333 9 49 9
c22.667 0 40 -3.33301 52 -10s20.167 -15.667 24.5 -27s5.66602 -25 3.99902 -41s-4.5 -33 -8.5 -51zM186.999 575c6 5.33301 15.0029 10.999 27.0029 16.999s27 9 45 9c11.333 0 20.666 -1.5 27.999 -4.5s14.5 -6.33301 21.5 -10s14.667 -7 23 -10s18.833 -4.5 31.5 -4.5
c13.333 0 26.666 2.83301 39.999 8.5s25 11.834 35 18.501l-19 -83c-8.66699 -5.33301 -19.334 -10.833 -32.001 -16.5s-28 -8.5 -46 -8.5c-11.333 0 -20.833 1.5 -28.5 4.5s-15 6.5 -22 10.5s-14.333 7.5 -22 10.5s-17.5 4.5 -29.5 4.5
c-12.667 0 -25.5 -3.16699 -38.5 -9.5s-23.833 -12.833 -32.5 -19.5z" />
    <glyph glyph-name="ograve" unicode="&#xf2;" horiz-adv-x="356" 
d="M207 84c7.33301 0 14.5 3.5 21.5 10.5s11.5 14.5 13.5 22.5l49 214c2 8 1.16699 15.5 -2.5 22.5s-9.16699 10.5 -16.5 10.5h-27c-8 0 -15.5 -3.5 -22.5 -10.5s-11.5 -14.5 -13.5 -22.5l-49 -214c-2 -8 -1.16699 -15.5 2.5 -22.5s9.5 -10.5 17.5 -10.5h27zM159 -8
c-19.333 0 -35.833 3.5 -49.5 10.5s-24.5 16.333 -32.5 28s-13.167 25.334 -15.5 41.001s-1.5 32.167 2.5 49.5l48 206c4 17.333 10.667 33.833 20 49.5s20.666 29.334 33.999 41.001s28.5 21 45.5 28s35.167 10.5 54.5 10.5h27c18.667 0 34.834 -3.5 48.501 -10.5
s24.5 -16.333 32.5 -28s13 -25.334 15 -41.001s1 -32.167 -3 -49.5l-48 -206c-4 -17.333 -10.5 -33.833 -19.5 -49.5s-20.167 -29.334 -33.5 -41.001s-28.5 -21 -45.5 -28s-34.833 -10.5 -53.5 -10.5h-27zM208 621h108l3 -130h-62z" />
    <glyph glyph-name="oacute" unicode="&#xf3;" horiz-adv-x="356" 
d="M207 84c7.33301 0 14.5 3.5 21.5 10.5s11.5 14.5 13.5 22.5l49 214c2 8 1.16699 15.5 -2.5 22.5s-9.16699 10.5 -16.5 10.5h-27c-8 0 -15.5 -3.5 -22.5 -10.5s-11.5 -14.5 -13.5 -22.5l-49 -214c-2 -8 -1.16699 -15.5 2.5 -22.5s9.5 -10.5 17.5 -10.5h27zM159 -8
c-19.333 0 -35.833 3.5 -49.5 10.5s-24.5 16.333 -32.5 28s-13.167 25.334 -15.5 41.001s-1.5 32.167 2.5 49.5l48 206c4 17.333 10.667 33.833 20 49.5s20.666 29.334 33.999 41.001s28.5 21 45.5 28s35.167 10.5 54.5 10.5h27c18.667 0 34.834 -3.5 48.501 -10.5
s24.5 -16.333 32.5 -28s13 -25.334 15 -41.001s1 -32.167 -3 -49.5l-48 -206c-4 -17.333 -10.5 -33.833 -19.5 -49.5s-20.167 -29.334 -33.5 -41.001s-28.5 -21 -45.5 -28s-34.833 -10.5 -53.5 -10.5h-27zM314 491h-62l64 130h96z" />
    <glyph glyph-name="ocircumflex" unicode="&#xf4;" horiz-adv-x="356" 
d="M207 84c7.33301 0 14.5 3.5 21.5 10.5s11.5 14.5 13.5 22.5l49 214c2 8 1.16699 15.5 -2.5 22.5s-9.16699 10.5 -16.5 10.5h-27c-8 0 -15.5 -3.5 -22.5 -10.5s-11.5 -14.5 -13.5 -22.5l-49 -214c-2 -8 -1.16699 -15.5 2.5 -22.5s9.5 -10.5 17.5 -10.5h27zM159 -8
c-19.333 0 -35.833 3.5 -49.5 10.5s-24.5 16.333 -32.5 28s-13.167 25.334 -15.5 41.001s-1.5 32.167 2.5 49.5l48 206c4 17.333 10.667 33.833 20 49.5s20.666 29.334 33.999 41.001s28.5 21 45.5 28s35.167 10.5 54.5 10.5h27c18.667 0 34.834 -3.5 48.501 -10.5
s24.5 -16.333 32.5 -28s13 -25.334 15 -41.001s1 -32.167 -3 -49.5l-48 -206c-4 -17.333 -10.5 -33.833 -19.5 -49.5s-20.167 -29.334 -33.5 -41.001s-28.5 -21 -45.5 -28s-34.833 -10.5 -53.5 -10.5h-27zM318 490l-18 50l-41 -50h-89l123 141h55l58 -141h-88z" />
    <glyph glyph-name="otilde" unicode="&#xf5;" horiz-adv-x="356" 
d="M207 84c7.33301 0 14.5 3.5 21.5 10.5s11.5 14.5 13.5 22.5l49 214c2 8 1.16699 15.5 -2.5 22.5s-9.16699 10.5 -16.5 10.5h-27c-8 0 -15.5 -3.5 -22.5 -10.5s-11.5 -14.5 -13.5 -22.5l-49 -214c-2 -8 -1.16699 -15.5 2.5 -22.5s9.5 -10.5 17.5 -10.5h27zM159 -8
c-19.333 0 -35.833 3.5 -49.5 10.5s-24.5 16.333 -32.5 28s-13.167 25.334 -15.5 41.001s-1.5 32.167 2.5 49.5l48 206c4 17.333 10.667 33.833 20 49.5s20.666 29.334 33.999 41.001s28.5 21 45.5 28s35.167 10.5 54.5 10.5h27c18.667 0 34.834 -3.5 48.501 -10.5
s24.5 -16.333 32.5 -28s13 -25.334 15 -41.001s1 -32.167 -3 -49.5l-48 -206c-4 -17.333 -10.5 -33.833 -19.5 -49.5s-20.167 -29.334 -33.5 -41.001s-28.5 -21 -45.5 -28s-34.833 -10.5 -53.5 -10.5h-27zM183 575c6 5.33301 15.0029 10.999 27.0029 16.999s27 9 45 9
c11.333 0 20.666 -1.5 27.999 -4.5s14.5 -6.33301 21.5 -10s14.667 -7 23 -10s18.833 -4.5 31.5 -4.5c13.333 0 26.666 2.83301 39.999 8.5s25 11.834 35 18.501l-19 -83c-8.66699 -5.33301 -19.334 -10.833 -32.001 -16.5s-28 -8.5 -46 -8.5
c-11.333 0 -20.833 1.5 -28.5 4.5s-15 6.5 -22 10.5s-14.333 7.5 -22 10.5s-17.5 4.5 -29.5 4.5c-12.667 0 -25.5 -3.16699 -38.5 -9.5s-23.833 -12.833 -32.5 -19.5z" />
    <glyph glyph-name="odieresis" unicode="&#xf6;" horiz-adv-x="356" 
d="M207 84c7.33301 0 14.5 3.5 21.5 10.5s11.5 14.5 13.5 22.5l49 214c2 8 1.16699 15.5 -2.5 22.5s-9.16699 10.5 -16.5 10.5h-27c-8 0 -15.5 -3.5 -22.5 -10.5s-11.5 -14.5 -13.5 -22.5l-49 -214c-2 -8 -1.16699 -15.5 2.5 -22.5s9.5 -10.5 17.5 -10.5h27zM159 -8
c-19.333 0 -35.833 3.5 -49.5 10.5s-24.5 16.333 -32.5 28s-13.167 25.334 -15.5 41.001s-1.5 32.167 2.5 49.5l48 206c4 17.333 10.667 33.833 20 49.5s20.666 29.334 33.999 41.001s28.5 21 45.5 28s35.167 10.5 54.5 10.5h27c18.667 0 34.834 -3.5 48.501 -10.5
s24.5 -16.333 32.5 -28s13 -25.334 15 -41.001s1 -32.167 -3 -49.5l-48 -206c-4 -17.333 -10.5 -33.833 -19.5 -49.5s-20.167 -29.334 -33.5 -41.001s-28.5 -21 -45.5 -28s-34.833 -10.5 -53.5 -10.5h-27zM201 608h103l-24 -103h-103zM326 608h103l-24 -103h-103z" />
    <glyph glyph-name="divide" unicode="&#xf7;" horiz-adv-x="295" 
d="M170 344l23 102h102l-23 -102h-102zM109 82l24 102h102l-24 -102h-102zM71 213l22 97h247l-22 -97h-247z" />
    <glyph glyph-name="oslash" unicode="&#xf8;" horiz-adv-x="356" 
d="M165 2c-20 0 -36.666 3.33301 -49.999 10l-28 -40l-50 23l39 57c-5.33301 11.333 -8.5 23.5 -9.5 36.5s0.166992 27.167 3.5 42.5l48 206c4 17.333 10.667 33.833 20 49.5s20.666 29.334 33.999 41.001s28.5 21 45.5 28s35.167 10.5 54.5 10.5h27
c20 0 37.667 -4.33301 53 -13l17 24l49 -25l-29 -43c8 -21.333 9 -45.333 3 -72l-48 -206c-4 -17.333 -10.5 -33.833 -19.5 -49.5s-20.167 -29.334 -33.5 -41.001s-28.5 -21 -45.5 -28s-34.833 -10.5 -53.5 -10.5h-27zM185.001 209l108 157c-4 5.33301 -9 8 -15 8h-27
c-8 0 -15.5 -3.5 -22.5 -10.5s-11.5 -14.5 -13.5 -22.5zM213.001 94c7.33301 0 14.5 3.5 21.5 10.5s11.5 14.5 13.5 22.5l27 117l-101 -146c2.66699 -2.66699 6.66699 -4 12 -4h27z" />
    <glyph glyph-name="ugrave" unicode="&#xf9;" horiz-adv-x="358" 
d="M140 448l96.001 -0.000976562l-72 -313c-8 -32 -1 -48 21 -48c6 0 11.833 1 17.5 3s11.167 4.33301 16.5 7c6 2.66699 11.667 6.33398 17 11.001l79 340h96l-103 -448h-89l4 18c-9.33301 -5.33301 -21.5 -11 -36.5 -17s-31.167 -9 -48.5 -9
c-22.667 0 -39.834 4 -51.501 12s-19.667 18.833 -24 32.5s-5.5 29 -3.5 46s5 34.5 9 52.5zM212.001 620.999h108l3 -130h-62z" />
    <glyph glyph-name="uacute" unicode="&#xfa;" horiz-adv-x="358" 
d="M140 448l96.001 -0.000976562l-72 -313c-8 -32 -1 -48 21 -48c6 0 11.833 1 17.5 3s11.167 4.33301 16.5 7c6 2.66699 11.667 6.33398 17 11.001l79 340h96l-103 -448h-89l4 18c-9.33301 -5.33301 -21.5 -11 -36.5 -17s-31.167 -9 -48.5 -9
c-22.667 0 -39.834 4 -51.501 12s-19.667 18.833 -24 32.5s-5.5 29 -3.5 46s5 34.5 9 52.5zM320.001 490.999h-62l64 130h96z" />
    <glyph glyph-name="ucircumflex" unicode="&#xfb;" horiz-adv-x="358" 
d="M140 448l96.001 -0.000976562l-72 -313c-8 -32 -1 -48 21 -48c6 0 11.833 1 17.5 3s11.167 4.33301 16.5 7c6 2.66699 11.667 6.33398 17 11.001l79 340h96l-103 -448h-89l4 18c-9.33301 -5.33301 -21.5 -11 -36.5 -17s-31.167 -9 -48.5 -9
c-22.667 0 -39.834 4 -51.501 12s-19.667 18.833 -24 32.5s-5.5 29 -3.5 46s5 34.5 9 52.5zM319.001 489.999l-18 50l-41 -50h-89l123 141h55l58 -141h-88z" />
    <glyph glyph-name="udieresis" unicode="&#xfc;" horiz-adv-x="358" 
d="M140 448l96.001 -0.000976562l-72 -313c-8 -32 -1 -48 21 -48c6 0 11.833 1 17.5 3s11.167 4.33301 16.5 7c6 2.66699 11.667 6.33398 17 11.001l79 340h96l-103 -448h-89l4 18c-9.33301 -5.33301 -21.5 -11 -36.5 -17s-31.167 -9 -48.5 -9
c-22.667 0 -39.834 4 -51.501 12s-19.667 18.833 -24 32.5s-5.5 29 -3.5 46s5 34.5 9 52.5zM202.001 607.999h103l-24 -103h-103zM327.001 607.999h103l-24 -103h-103z" />
    <glyph glyph-name="yacute" unicode="&#xfd;" horiz-adv-x="335" 
d="M413 448l-113 -488c-8.66699 -36.667 -25 -67.167 -49 -91.5s-57.667 -36.5 -101 -36.5h-119l21 91h115c8.66699 0 16.334 3.5 23.001 10.5s11.667 16.5 15 28.5l13 56c-10.667 -10 -22.5 -16.833 -35.5 -20.5s-25.5 -5.5 -37.5 -5.5c-19.333 0 -35.333 3.5 -48 10.5
s-22.334 16.5 -29.001 28.5s-10.5 25.833 -11.5 41.5s0.5 32.167 4.5 49.5l79 325h94l-78 -328c-2.66699 -10 -1.5 -18.167 3.5 -24.5s12.167 -9.5 21.5 -9.5h20c9.33301 0 17.833 3.66699 25.5 11s12.5 15 14.5 23l78 329h94zM303 491h-62l64 130h96z" />
    <glyph glyph-name="thorn" unicode="&#xfe;" horiz-adv-x="364" 
d="M348 128c-4 -17.333 -10.1699 -34.167 -18.5029 -50.5s-18.666 -30.833 -30.999 -43.5s-26.5 -22.834 -42.5 -30.501s-33.667 -11.5 -53 -11.5c-12 0 -23.667 0.5 -35 1.5s-21.333 4.16699 -30 9.5l-35 -154h-96l178 774h96l-42 -185
c7.33301 4.66699 16.833 8.83398 28.5 12.501s25.5 5.5 41.5 5.5c34.667 0 59.834 -11.333 75.501 -34s18.834 -55 9.50098 -97zM165.997 122.999c-2 -8.66699 -1.00391 -17.167 2.99609 -25.5s10.667 -12.5 20 -12.5h21c9.33301 0 17.833 3.66699 25.5 11
s12.834 16.333 15.501 27l47 206c2.66699 9.33301 1.83398 17.333 -2.49902 24s-11.166 10 -20.499 10h-23c-9.33301 0 -17.666 -3.66699 -24.999 -11s-12 -15 -14 -23z" />
    <glyph glyph-name="ydieresis" unicode="&#xff;" horiz-adv-x="335" 
d="M413 448l-113 -488c-8.66699 -36.667 -25 -67.167 -49 -91.5s-57.667 -36.5 -101 -36.5h-119l21 91h115c8.66699 0 16.334 3.5 23.001 10.5s11.667 16.5 15 28.5l13 56c-10.667 -10 -22.5 -16.833 -35.5 -20.5s-25.5 -5.5 -37.5 -5.5c-19.333 0 -35.333 3.5 -48 10.5
s-22.334 16.5 -29.001 28.5s-10.5 25.833 -11.5 41.5s0.5 32.167 4.5 49.5l79 325h94l-78 -328c-2.66699 -10 -1.5 -18.167 3.5 -24.5s12.167 -9.5 21.5 -9.5h20c9.33301 0 17.833 3.66699 25.5 11s12.5 15 14.5 23l78 329h94zM191 608h103l-24 -103h-103zM316 608h103
l-24 -103h-103z" />
    <glyph glyph-name="dotlessi" unicode="&#x131;" horiz-adv-x="196" 
d="M48 0l103 448h96l-103 -448h-96z" />
    <glyph glyph-name="OE" unicode="&#x152;" horiz-adv-x="592" 
d="M183 0c-22 0 -40.832 4 -56.499 12s-27.834 19 -36.501 33s-14 30.5 -16 49.5s-0.333008 39.5 5 61.5l73 318c4.66699 22 12.334 42.5 23.001 61.5s23.667 35.5 39 49.5s32.666 25.167 51.999 33.5s40 12.5 62 12.5h369l-22 -97h-171l-38 -163h114l-22 -97h-114l-41 -177
h171l-22 -97h-369zM402.001 534h-96.002c-13.333 0 -24.166 -5.16699 -32.499 -15.5s-14.166 -21.833 -17.499 -34.5l-78 -337c-2.66699 -12.667 -2.16699 -24.167 1.5 -34.5s12.167 -15.5 25.5 -15.5h96z" />
    <glyph glyph-name="oe" unicode="&#x153;" horiz-adv-x="521" 
d="M209 84c7.33301 0 14.501 3.50098 21.501 10.501s11.5 14.5 13.5 22.5l50 217c1.33301 7.33301 0.166016 14.166 -3.50098 20.499s-9.16699 9.5 -16.5 9.5h-27c-8 0 -15.5 -3.5 -22.5 -10.5s-11.5 -14.5 -13.5 -22.5l-49 -214c-2 -8 -1.16699 -15.5 2.5 -22.5
s9.5 -10.5 17.5 -10.5h27zM469.001 335.001c1.33301 6.66699 1.50098 13.167 0.500977 19.5s-5.5 9.5 -13.5 9.5h-36c-4.66699 0 -9 -1.33301 -13 -4c-8.66699 -4.66699 -14.334 -13.334 -17.001 -26.001l-19 -80h56c10 0 17 2.83301 21 8.5s6.66699 11.834 8 18.501z
M472.002 -7.99902l-132.997 -0.00195312c-16 0 -29.333 2.16699 -40 6.5s-20.334 10.5 -29.001 18.5c-24 -16.667 -51.333 -25 -82 -25h-27c-19.333 0 -35.833 3.5 -49.5 10.5s-24.5 16.333 -32.5 28s-13.167 25.334 -15.5 41.001s-1.5 32.167 2.5 49.5l48 206
c4 17.333 10.667 33.833 20 49.5s20.666 29.334 33.999 41.001s28.5 21 45.5 28s35.167 10.5 54.5 10.5h27c14 0 26.667 -2.16699 38 -6.5s21 -9.83301 29 -16.5c24.667 15.333 51.667 23 81 23h33c14 0 27.333 -2.5 40 -7.5s23.5 -12.5 32.5 -22.5s15.167 -22.333 18.5 -37
s2.66602 -32 -2.00098 -52l-16 -72c-8 -34 -23.167 -59.667 -45.5 -77s-48.833 -26 -79.5 -26h-74l-10 -45c-2 -8 -1.16699 -15.5 2.5 -22.5s9.5 -10.5 17.5 -10.5h133z" />
    <glyph glyph-name="Scaron" unicode="&#x160;" horiz-adv-x="371" 
d="M164 144c-3.33301 -15.333 -3.66211 -28 -0.995117 -38s9 -15 19 -15h45c11.333 0 20.666 5 27.999 15s12.666 23.667 15.999 41l14 59c3.33301 15.333 3.33301 27 0 35s-11.666 15.667 -24.999 23l-75 43h1c-8 4.66699 -16.5 10.334 -25.5 17.001
s-16.667 15.334 -23 26.001s-10.666 23.667 -12.999 39s-0.833008 34 4.5 56l9 37c4.66699 20 11.5 39 20.5 57s20.5 33.833 34.5 47.5s30.333 24.5 49 32.5s39.667 12 63 12h53c23.333 0 42.166 -3.83301 56.499 -11.5s25.166 -18.334 32.499 -32.001
s11.166 -29.5 11.499 -47.5s-1.83398 -37.333 -6.50098 -58l-5 -21h-102l5 20c3.33301 15.333 3.66602 28 0.999023 38s-9 15 -19 15h-45c-11.333 0 -20.666 -5 -27.999 -15s-13 -23.667 -17 -41l-7 -28c-3.33301 -15.333 -1.16602 -27.666 6.50098 -36.999
s15.167 -16 22.5 -20l76 -44h-1c10.667 -6 20.167 -13 28.5 -21s14.833 -17.5 19.5 -28.5s7.16699 -24 7.5 -39s-1.83398 -32.833 -6.50098 -53.5l-14 -62c-4.66699 -20.667 -11.167 -39.834 -19.5 -57.501s-19 -33 -32 -46s-28.5 -23.167 -46.5 -30.5s-39 -11 -63 -11h-55
c-25.333 0 -45.333 4.16699 -60 12.5s-25.334 19.333 -32.001 33s-10 29.167 -10 46.5s2 34.666 6 51.999l7 31h102zM345.004 814l18 -49l41 49h88l-122 -141h-55l-59 141h89z" />
    <glyph glyph-name="scaron" unicode="&#x161;" horiz-adv-x="342" 
d="M328 113c-4 -15.333 -10.335 -30.332 -19.002 -44.999s-19.167 -27.667 -31.5 -39s-26.166 -20.333 -41.499 -27s-31.333 -10 -48 -10h-49c-18.667 0 -33.834 3.83301 -45.501 11.5s-20.5 17.834 -26.5 30.501s-9.33301 27.167 -10 43.5s1 33.166 5 50.499h96
c-1.33301 -4.66699 -2.16602 -9.5 -2.49902 -14.5s-0.166016 -9.66699 0.500977 -14s2 -8 4 -11s5.33301 -4.5 10 -4.5h29c11.333 0 19.5 3.33301 24.5 10s8.16699 13 9.5 19l6 26c2 9.33301 1.83301 16.333 -0.5 21s-9.5 9.66699 -21.5 15l-54 24
c-10 4.66699 -19.5 10.167 -28.5 16.5s-16.333 14 -22 23s-9.5 19.5 -11.5 31.5s-1 26 3 42l6 28c3.33301 15.333 9.16602 30 17.499 44s18.5 26.333 30.5 37s25.5 19.167 40.5 25.5s31.167 9.5 48.5 9.5h48c18.667 0 33.834 -3.66699 45.501 -11s20.5 -17.333 26.5 -30
s9.33301 -27 10 -43s-1 -32.667 -5 -50h-96c2 9.33301 2.5 18.666 1.5 27.999s-5.83301 14 -14.5 14h-29c-7.33301 0 -13.5 -2.33301 -18.5 -7s-8.16699 -10.334 -9.5 -17.001l-6 -24c-2 -9.33301 0.666992 -17.166 8 -23.499s17.666 -12.5 30.999 -18.5l50 -22
c20 -9.33301 34.333 -22 43 -38s9.33398 -40 2.00098 -72zM283.998 631.001l18 -49l41 49h88l-122 -141h-55l-59 141h89z" />
    <glyph glyph-name="Ydieresis" unicode="&#x178;" horiz-adv-x="365" 
d="M277 200l-46 -200h-102l46 200l-21 431h106l1 -280l134 280h106zM250 791h103l-24 -103h-103zM375 791h103l-24 -103h-103z" />
    <glyph glyph-name="Zcaron" unicode="&#x17d;" horiz-adv-x="334" 
d="M20 0l18 79l286 455h-179l22 97h292l-18 -78l-287 -456h182l-22 -97h-294zM333 814l18 -49l41 49h88l-122 -141h-55l-59 141h89z" />
    <glyph glyph-name="zcaron" unicode="&#x17e;" horiz-adv-x="337" 
d="M23 0l16 72l228 285h-158l21 91h280l-16 -71l-231 -285h165l-21 -92h-284zM282 631l18 -49l41 49h88l-122 -141h-55l-59 141h89z" />
    <glyph glyph-name="uni0237" unicode="&#x237;" horiz-adv-x="201" 
d="M147 -1c-11.333 -51.333 -31.667 -91.999 -61 -121.999s-69 -45 -119 -45l20 90c17.333 2 31 9.16699 41 21.5s17.667 30.166 23 53.499l104 451h96z" />
    <glyph glyph-name="circumflex" unicode="&#x2c6;" horiz-adv-x="300" 
d="M289 490l-18 50l-41 -50h-89l123 141h55l58 -141h-88z" />
    <glyph glyph-name="tilde" unicode="&#x2dc;" horiz-adv-x="315" 
d="M160 575c6 5.33301 15.0029 10.999 27.0029 16.999s27 9 45 9c11.333 0 20.666 -1.5 27.999 -4.5s14.5 -6.33301 21.5 -10s14.667 -7 23 -10s18.833 -4.5 31.5 -4.5c13.333 0 26.666 2.83301 39.999 8.5s25 11.834 35 18.501l-19 -83
c-8.66699 -5.33301 -19.334 -10.833 -32.001 -16.5s-28 -8.5 -46 -8.5c-11.333 0 -20.833 1.5 -28.5 4.5s-15 6.5 -22 10.5s-14.333 7.5 -22 10.5s-17.5 4.5 -29.5 4.5c-12.667 0 -25.5 -3.16699 -38.5 -9.5s-23.833 -12.833 -32.5 -19.5z" />
    <glyph glyph-name="endash" unicode="&#x2013;" horiz-adv-x="359" 
d="M75 224l21 90h305l-21 -90h-305z" />
    <glyph glyph-name="emdash" unicode="&#x2014;" horiz-adv-x="509" 
d="M78 230l20 90h451l-20 -90h-451z" />
    <glyph glyph-name="quoteleft" unicode="&#x2018;" horiz-adv-x="165" 
d="M150 521c4 18.667 10.666 35.334 19.999 50.001s18.666 27.334 27.999 38.001c11.333 12 23.333 22.667 36 32l36 -9c-5.33301 -6.66699 -10.666 -14.334 -15.999 -23.001c-4.66699 -7.33301 -9.16699 -16.333 -13.5 -27s-8.16602 -22.334 -11.499 -35.001h29l-24 -102
h-102z" />
    <glyph glyph-name="quoteright" unicode="&#x2019;" horiz-adv-x="165" 
d="M260 555c-4.66699 -18.667 -11.501 -35.3301 -20.501 -49.9971s-18.167 -27.334 -27.5 -38.001c-11.333 -12 -23.333 -22.667 -36 -32l-38 8c6 7.33301 11.667 15.333 17 24c4.66699 7.33301 9.33398 16.166 14.001 26.499s8.66699 22.166 12 35.499h-29l23 102h102z" />
    <glyph glyph-name="quotesinglbase" unicode="&#x201a;" horiz-adv-x="165" 
d="M138 26c-4.66699 -18.667 -11.668 -35.332 -21.001 -49.999s-18.666 -27.334 -27.999 -38.001c-11.333 -12 -23 -22.667 -35 -32l-39 7c5.33301 7.33301 11 15.333 17 24c4.66699 7.33301 9.5 16.333 14.5 27s9.16699 22.667 12.5 36h-29l23 102h102z" />
    <glyph glyph-name="quotedblleft" unicode="&#x201c;" horiz-adv-x="280" 
d="M263 521c4 18.667 10.667 35.334 20 50.001s18.666 27.334 27.999 38.001c11.333 12 23 22.667 35 32l37 -9c-6 -6.66699 -11.667 -14.334 -17 -23.001c-4.66699 -7.33301 -9.16699 -16.333 -13.5 -27s-8.16602 -22.334 -11.499 -35.001h29l-24 -102h-101zM151 521
c4 18.667 10.666 35.334 19.999 50.001s18.666 27.334 27.999 38.001c11.333 12 23 22.667 35 32l37 -9c-5.33301 -6.66699 -10.666 -14.334 -15.999 -23.001c-4.66699 -7.33301 -9.16699 -16.333 -13.5 -27s-8.16602 -22.334 -11.499 -35.001h29l-24 -102h-102z" />
    <glyph glyph-name="quotedblright" unicode="&#x201d;" horiz-adv-x="280" 
d="M261 555c-4.66699 -18.667 -11.501 -35.3301 -20.501 -49.9971s-18.167 -27.334 -27.5 -38.001c-11.333 -12 -23.333 -22.667 -36 -32l-38 8c6 7.33301 11.667 15.333 17 24c4.66699 7.33301 9.33398 16.166 14.001 26.499s8.66699 22.166 12 35.499h-29l23 102h102z
M371.999 555.004c-4.66699 -18.667 -11.501 -35.3301 -20.501 -49.9971s-18.167 -27.334 -27.5 -38.001c-11.333 -12 -23.333 -22.667 -36 -32l-37 8c6 7.33301 11.667 15.333 17 24c4.66699 7.33301 9.33398 16.166 14.001 26.499s8.66699 22.166 12 35.499h-29l23 102h101
z" />
    <glyph glyph-name="quotedblbase" unicode="&#x201e;" horiz-adv-x="280" 
d="M139 26c-4.66699 -18.667 -11.668 -35.332 -21.001 -49.999s-18.666 -27.334 -27.999 -38.001c-11.333 -12 -23 -22.667 -35 -32l-39 7c5.33301 7.33301 11 15.333 17 24c4.66699 7.33301 9.5 16.333 14.5 27s9.16699 22.667 12.5 36h-29l23 102h102zM249.999 26.002
c-4.66699 -18.667 -11.668 -35.332 -21.001 -49.999s-18.666 -27.334 -27.999 -38.001c-11.333 -12 -23 -22.667 -35 -32l-38 7c5.33301 7.33301 11 15.333 17 24c4.66699 7.33301 9.5 16.333 14.5 27s9.16699 22.667 12.5 36h-29l23 102h101z" />
    <glyph glyph-name="dagger" unicode="&#x2020;" horiz-adv-x="263" 
d="M280 502l-24 -104h-79l24 104h-65l18 78h65l16 66h79l-16 -66h65l-18 -78h-65z" />
    <glyph glyph-name="daggerdbl" unicode="&#x2021;" horiz-adv-x="258" 
d="M241 331l-24 -103h-79l24 103h-65l18 78h65l21 93h-65l18 78h65l16 66h79l-16 -66h65l-18 -78h-65l-21 -93h65l-18 -78h-65z" />
    <glyph glyph-name="bullet" unicode="&#x2022;" horiz-adv-x="274" 
d="M300 304c-3.33301 -12.667 -8.83301 -24.667 -16.5 -36s-16.667 -21.166 -27 -29.499s-21.666 -15 -33.999 -20s-24.833 -7.5 -37.5 -7.5s-24 2.5 -34 7.5s-18.333 11.667 -25 20s-11.167 18.166 -13.5 29.499s-1.83301 23.333 1.5 36
c2.66699 12.667 7.66699 24.667 15 36s16.333 21.166 27 29.499s22.167 15 34.5 20s24.833 7.5 37.5 7.5s24 -2.5 34 -7.5s18.333 -11.667 25 -20s11.167 -18.166 13.5 -29.499s2.16602 -23.333 -0.500977 -36z" />
    <glyph glyph-name="ellipsis" unicode="&#x2026;" horiz-adv-x="451" 
d="M302 0l23 102h102l-23 -102h-102zM165 0l23 102h102l-23 -102h-102zM32 0l23 102h102l-23 -102h-102z" />
    <glyph glyph-name="perthousand" unicode="&#x2030;" horiz-adv-x="686" 
d="M175 0h-82l374 631h83zM280 368c-2 -8.66699 -5.33398 -17.333 -10.001 -26s-10.5 -16.334 -17.5 -23.001s-14.833 -12 -23.5 -16s-18 -6 -28 -6h-56c-19.333 0 -33.166 7.5 -41.499 22.5s-10.5 31.167 -6.5 48.5l45 191c2 8.66699 5.5 17.334 10.5 26.001
s11 16.334 18 23.001s14.833 12.167 23.5 16.5s18 6.5 28 6.5h56c20.667 0 34.667 -7.33301 42 -22s9 -31.334 5 -50.001zM256.999 556.001c2 8 0.334961 11.999 -4.99805 11.999h-33c-2.66699 0 -5 -1.16699 -7 -3.5s-3.33301 -5.16602 -4 -8.49902l-42 -183
c-2 -5.33301 -1.66699 -8.66602 1 -9.99902c1.33301 -0.666992 2.66602 -1 3.99902 -1h33c1.33301 0 2.66602 0.333008 3.99902 1c2.66699 1.33301 5 4.66602 7 9.99902zM496.001 71c-2 -8.66699 -5.33301 -17.333 -10 -26s-10.5 -16.334 -17.5 -23.001
s-14.833 -12 -23.5 -16s-18 -6 -28 -6h-56c-19.333 0 -33.166 7.5 -41.499 22.5s-10.5 31.167 -6.5 48.5l44 191c2 8.66699 5.5 17.334 10.5 26.001s11.167 16.334 18.5 23.001s15.333 12.167 24 16.5s18 6.5 28 6.5h56c20.667 0 34.667 -7.33301 42 -22
s8.66602 -31.334 3.99902 -50.001zM472.001 259.001c2 8 0.335938 11.999 -4.99707 11.999h-33c-2.66699 0 -4.83398 -1.16699 -6.50098 -3.5s-3.16699 -5.16602 -4.5 -8.49902l-42 -183c-0.666992 -5.33301 0 -8.66602 2 -9.99902c1.33301 -0.666992 2.66602 -1 3.99902 -1
h33c1.33301 0 2.66602 0.333008 3.99902 1c3.33301 1.33301 5.33301 4.66602 6 9.99902zM690.004 71c-2 -8.66699 -5.33301 -17.333 -10 -26s-10.5 -16.334 -17.5 -23.001s-14.833 -12 -23.5 -16s-18 -6 -28 -6h-56c-19.333 0 -33.166 7.5 -41.499 22.5
s-10.5 31.167 -6.5 48.5l44 191c2 8.66699 5.5 17.334 10.5 26.001s11.167 16.334 18.5 23.001s15.333 12.167 24 16.5s18 6.5 28 6.5h56c20.667 0 34.667 -7.33301 42 -22s8.66602 -31.334 3.99902 -50.001zM666.004 259.001c2 8 0.335938 11.999 -4.99707 11.999h-33
c-2.66699 0 -4.83398 -1.16699 -6.50098 -3.5s-3.16699 -5.16602 -4.5 -8.49902l-42 -183c-0.666992 -5.33301 0 -8.66602 2 -9.99902c1.33301 -0.666992 2.66602 -1 3.99902 -1h33c1.33301 0 2.66602 0.333008 3.99902 1c3.33301 1.33301 5.33301 4.66602 6 9.99902z" />
    <glyph glyph-name="guilsinglleft" unicode="&#x2039;" horiz-adv-x="273" 
d="M202 86l-116 169l194 169l46 -58l-139 -122l77 -112z" />
    <glyph glyph-name="guilsinglright" unicode="&#x203a;" horiz-adv-x="273" 
d="M164 424l116 -169l-194 -169l-46 58l139 122l-77 112z" />
    <glyph glyph-name="Euro" unicode="&#x20ac;" horiz-adv-x="461" 
d="M427 110c-3.33301 -14.667 -9.16895 -28.665 -17.502 -41.998s-18.666 -25 -30.999 -35s-26.666 -18 -42.999 -24s-33.833 -9 -52.5 -9h-81c-38.667 0 -66 11.167 -82 33.5s-19.333 53.833 -10 94.5l21 92h-60l33 78h45l6 24h-40l34 77h24l21 94
c4 18 10.333 35.5 19 52.5s19.5 31.833 32.5 44.5s28 22.834 45 30.501s35.833 11.5 56.5 11.5h80c36 0 62.333 -11.833 79 -35.5s21 -52.834 13 -87.501l-11 -47h-102l8 34c2.66699 11.333 2.33398 20.666 -0.999023 27.999s-11.333 11 -24 11h-46
c-12 0 -22 -3.83301 -30 -11.5s-13.333 -17.5 -16 -29.5l-22 -95h142l-33 -77h-127l-6 -24h122l-34 -78h-106l-20 -88c-2.66699 -11.333 -0.666992 -20 6 -26s13.667 -9 21 -9h45c10 0 19.167 2.66699 27.5 8s14.166 13.666 17.499 24.999l10 45h102z" />
    <glyph glyph-name="trademark" unicode="&#x2122;" horiz-adv-x="263" 
d="M312 481l10 45.001l-25 -45h-12l-4 44l-10 -44h-41l34 150h35l9 -79c6.66699 11.333 14.167 24.666 22.5 39.999s15.833 28.333 22.5 39h35l-34 -150h-42zM216 590.001l-25 -109h-39l25 109h-26l9 41h90l-9 -41h-25z" />
    </font>
</defs>
</svg>
